<?xml version="1.0" encoding="UTF-8" standalone="no"?>
<svg
   width="1258.0002"
   height="1258.0024"
   viewBox="0 0 1258.0002 1258.0024"
   fill="none"
   version="1.1"
   id="svg3"
   sodipodi:docname="Vector.svg"
   inkscape:export-filename="Vector.svg"
   inkscape:export-xdpi="96"
   inkscape:export-ydpi="96"
   xmlns:inkscape="http://www.inkscape.org/namespaces/inkscape"
   xmlns:sodipodi="http://sodipodi.sourceforge.net/DTD/sodipodi-0.dtd"
   xmlns="http://www.w3.org/2000/svg"
   xmlns:svg="http://www.w3.org/2000/svg">
  <sodipodi:namedview
     id="namedview3"
     pagecolor="#505050"
     bordercolor="#eeeeee"
     borderopacity="1"
     inkscape:showpageshadow="0"
     inkscape:pageopacity="0"
     inkscape:pagecheckerboard="0"
     inkscape:deskcolor="#d1d1d1" />
  <path
     fill-rule="evenodd"
     clip-rule="evenodd"
     d="m 272.99525,1237.8402 c -7.828,-6.99 -14.677,-15.8 -20.548,-26.42 -5.871,-10.34 -10.763,-22.09 -14.677,-35.23 -4.194,-13.14 -7.828,-27.11 -10.903,-41.93 -3.075,-14.82 -6.011,-30.195 -8.807,-46.131 -2.795,-15.935 -5.731,-32.01 -8.806,-48.225 -2.795,-16.215 -6.15,-32.29 -10.064,-48.22601 -3.914,-15.656 -8.527,-30.753 -13.839,-45.29 -5.311,-14.538 -11.602,-28.097 -18.87,-40.677 -6.989,-12.861 -14.677,-25.022 -23.064,-36.484 -8.108,-11.463 -16.634,-22.366 -25.581,-32.71 -8.946,-10.344 -17.892,-20.269 -26.838,-29.774 -8.946,-9.505 -17.612,-18.871 -25.999,-28.097 -8.387,-8.946 -16.355,-17.892 -23.903,-26.838 -7.269,-8.667 -13.699,-17.473 -19.29,-26.419 -5.871,-8.947 -10.484,-18.033 -13.839,-27.258 -3.634,-9.226 -6.01,-18.732 -7.128,-28.516 -1.119,-9.506 -1.119,-19.151 0,-28.936 0.838,-10.064 2.795,-19.989 5.87,-29.774 2.796,-9.785 6.57,-19.57 11.323,-29.355 4.473,-9.785 9.924,-19.29 16.354,-28.516 6.151,-9.505 13,-18.591 20.548,-27.258 7.549,-8.946 15.656,-17.473 24.323,-25.58 8.666,-8.108 17.892,-15.796 27.677,-23.065 9.505,-7.548 19.429,-14.677 29.773,-21.387 10.344,-6.71 20.828,-13.279 31.451,-19.709 10.903,-6.431 21.806,-13 32.709,-19.71 10.903,-6.71 21.667,-13.699 32.29,-20.968 10.903,-7.269 21.527,-14.817 31.87,-22.645 10.344,-8.107 20.269,-16.914 29.774,-26.419 9.785,-9.226 19.011,-19.29 27.677,-30.194 8.667,-10.903 16.914,-22.645 24.742,-35.225 7.827,-12.301 15.236,-25.301 22.225,-39 6.9891,-13.699 13.8384,-27.538 20.5479,-41.5162 6.7096,-14.258 13.4191,-28.2365 20.1287,-41.9354 6.7096,-13.9784 13.6987,-27.5375 20.9674,-40.67726 7.2687,-13.13975 14.9567,-25.440745 23.0641,-36.903145 7.82779,-11.7419 16.35453,-22.3655 25.58017,-31.8708 9.22563,-9.5054 19.29003,-17.6129 30.19303,-24.3226 10.6234,-6.9892 22.0856,-12.4408 34.3864,-16.3545998 12.3009,-3.914 25.0212,-6.43 38.1603,-7.54899999 13.42,-1.118 26.978,-0.978 40.677,0.41999999 13.699,1.398 27.397,3.914 41.096,7.548 13.699,3.9141998 27.118,8.8065998 40.257,14.6775998 13.14,6.1505 25.86,13.2795 38.161,21.387 12.301,8.1075 23.763,17.0537 34.387,26.8387 10.623,9.7849 20.408,20.5483 29.354,32.290205 8.946,11.46232 17.053,23.6236 24.322,36.4838 7.269,12.8601 13.978,25.9999 20.129,39.4192 6.43,13.4193 12.58,26.9784 18.451,40.6775 5.871,13.699 11.742,27.118 17.613,40.258 6.15,13.419 12.72,26.419 19.709,39 6.709,12.58 14.118,24.322 22.225,35.225 8.108,11.183 17.194,21.387 27.258,30.613 10.344,9.226 21.526,17.473 33.548,24.742 12.29995,6.989 25.29995,13.28 38.99905,18.871 13.6989,5.312 27.817,10.064 42.354,14.258 14.258,3.914 28.5159,7.548 42.7729,10.903 14.2581,3.355 28.097,6.71 41.5161,10.065 13.1389,3.075 25.44,6.29 36.902,9.645 11.463,3.355 21.667,6.989 30.613,10.903 8.946,4.194 16.215,8.946 21.806,14.258 5.312,5.312 9.086,11.183 11.322,17.613 1.957,6.71 2.516,14.118 1.678,22.226 -0.56,7.828 -2.237,16.215 -5.033,25.161 -2.795,8.946 -6.15,18.312 -10.064,28.097 -3.914,9.784 -8.107,19.989 -12.58,30.612 -4.473,10.624 -8.946,21.387 -13.419,32.291 -4.194,11.182 -7.968,22.505 -11.323,33.967 -3.075,11.463 -5.451,22.925 -7.129,34.387 -1.677,11.742 -2.656,23.484 -2.935,35.226 0,11.462 0.279,22.925 0.838,34.387 0.839,11.462 1.678,22.785 2.517,33.968 1.118,11.182 2.096,22.225 2.935,33.129 0.559,10.623 0.839,20.827 0.839,30.612 0,10.065 -0.839,19.71 -2.516,28.936 -1.398,9.225 -3.775,17.892 -7.129,26 -3.635,8.107 -8.387,15.795 -14.258,23.064 -5.871,6.989 -12.72,13.559 -20.548,19.71 -8.108,5.871 -16.914,11.462 -26.419,16.774 -9.785,5.312 -20.268,10.204 -31.451,14.67701 -10.903,4.473 -22.365,8.667 -34.387,12.581 -12.021,4.193 -24.461,8.107 -37.321,11.742 -12.581,3.634 -25.301,7.129 -38.16105,10.484 -12.86,3.354 -25.72,6.709 -38.58,10.064 -12.86,3.355 -25.58,6.71 -38.161,10.064 -12.58,3.355 -25.021,6.85 -37.322,10.484 -12.58,3.355 -25.021,6.989 -37.321,10.904 -12.581,3.913 -25.301,8.107 -38.161,12.58 -13.14,4.194 -26.419,8.667 -39.838,13.419 -13.419,5.033 -27.118,10.343 -41.096,15.933 -14.258,5.31 -28.935,11.19 -44.032,17.62 -15.096,6.43 -30.612,13.14 -46.547,20.12 -16.215,7.27 -32.849,14.82 -49.902,22.65 -17.0539,7.55 -34.2472,15.1 -51.5802,22.64 -17.0534,7.55 -34.1069,14.68 -51.16037,21.39 -17.05343,6.71 -33.82733,12.72 -50.32163,18.03 -16.2148,5.04 -31.7307,9.09 -46.5476,12.17 -15.0962,3.07 -29.2142,4.75 -42.3542,5.03 -13.139,0.28 -25.021,-1.26 -35.644,-4.62 -10.903,-3.07 -20.409,-8.24 -28.516,-15.51 z"
     fill="url(#paint0_linear_317_490)"
     fill-opacity="0.8"
     id="path1"
     style="fill:url(#paint0_linear_317_490)" />
  <defs
     id="defs3">
    <linearGradient
       id="paint0_linear_317_490"
       x1="788"
       y1="517"
       x2="-470"
       y2="517"
       gradientUnits="userSpaceOnUse"
       gradientTransform="translate(470.00025,112.00019)">
      <stop
         stop-color="#55AA8B"
         stop-opacity="0"
         id="stop1" />
      <stop
         offset="0.33"
         stop-color="#316330"
         stop-opacity="0.7"
         id="stop2" />
      <stop
         offset="0.61"
         stop-color="#192A13"
         id="stop3" />
    </linearGradient>
  </defs>
</svg>
