<svg width="788" height="764" viewBox="0 0 788 764" fill="none" xmlns="http://www.w3.org/2000/svg">
<path fill-rule="evenodd" clip-rule="evenodd" d="M-197.005 1125.84C-204.833 1118.85 -211.682 1110.04 -217.553 1099.42C-223.424 1089.08 -228.316 1077.33 -232.23 1064.19C-236.424 1051.05 -240.058 1037.08 -243.133 1022.26C-246.208 1007.44 -249.144 992.065 -251.94 976.129C-254.735 960.194 -257.671 944.119 -260.746 927.904C-263.541 911.689 -266.896 895.614 -270.81 879.678C-274.724 864.022 -279.337 848.925 -284.649 834.388C-289.96 819.85 -296.251 806.291 -303.519 793.711C-310.508 780.85 -318.196 768.689 -326.583 757.227C-334.691 745.764 -343.217 734.861 -352.164 724.517C-361.11 714.173 -370.056 704.248 -379.002 694.743C-387.948 685.238 -396.614 675.872 -405.001 666.646C-413.388 657.7 -421.356 648.754 -428.904 639.808C-436.173 631.141 -442.603 622.335 -448.194 613.389C-454.065 604.442 -458.678 595.356 -462.033 586.131C-465.667 576.905 -468.043 567.399 -469.161 557.615C-470.28 548.109 -470.28 538.464 -469.161 528.679C-468.323 518.615 -466.366 508.69 -463.291 498.905C-460.495 489.12 -456.721 479.335 -451.968 469.55C-447.495 459.765 -442.044 450.26 -435.614 441.034C-429.463 431.529 -422.614 422.443 -415.066 413.776C-407.517 404.83 -399.41 396.303 -390.743 388.196C-382.077 380.088 -372.851 372.4 -363.066 365.131C-353.561 357.583 -343.637 350.454 -333.293 343.744C-322.949 337.034 -312.465 330.465 -301.842 324.035C-290.939 317.604 -280.036 311.035 -269.133 304.325C-258.23 297.615 -247.466 290.626 -236.843 283.357C-225.94 276.088 -215.316 268.54 -204.973 260.712C-194.629 252.605 -184.704 243.798 -175.199 234.293C-165.414 225.067 -156.188 215.003 -147.522 204.099C-138.855 193.196 -130.608 181.454 -122.78 168.874C-114.953 156.573 -107.544 143.573 -100.555 129.874C-93.5659 116.175 -86.7166 102.336 -80.0071 88.3578C-73.2975 74.0998 -66.588 60.1213 -59.8784 46.4224C-53.1688 32.444 -46.1797 18.8849 -38.911 5.74514C-31.6423 -7.39461 -23.9543 -19.6956 -15.8469 -31.158C-8.01911 -42.8999 0.507627 -53.5235 9.73327 -63.0288C18.9589 -72.5342 29.0233 -80.6417 39.9263 -87.3514C50.5497 -94.3406 62.0119 -99.7922 74.3127 -103.706C86.6136 -107.62 99.3339 -110.136 112.473 -111.255C125.893 -112.373 139.451 -112.233 153.15 -110.835C166.849 -109.437 180.547 -106.921 194.246 -103.287C207.945 -99.3728 221.364 -94.4804 234.503 -88.6094C247.643 -82.4589 260.363 -75.3299 272.664 -67.2224C284.965 -59.1149 296.427 -50.1687 307.051 -40.3837C317.674 -30.5988 327.459 -19.8354 336.405 -8.0935C345.351 3.36882 353.458 15.5301 360.727 28.3903C367.996 41.2504 374.705 54.3902 380.856 67.8095C387.286 81.2288 393.436 94.7879 399.307 108.487C405.178 122.186 411.049 135.605 416.92 148.745C423.07 162.164 429.64 175.164 436.629 187.745C443.338 200.325 450.747 212.067 458.854 222.97C466.962 234.153 476.048 244.357 486.112 253.583C496.456 262.809 507.638 271.056 519.66 278.325C531.96 285.314 544.96 291.605 558.659 297.196C572.358 302.508 586.476 307.26 601.013 311.454C615.271 315.368 629.529 319.002 643.786 322.357C658.044 325.712 671.883 329.067 685.302 332.422C698.441 335.497 710.742 338.712 722.204 342.067C733.667 345.422 743.871 349.056 752.817 352.97C761.763 357.164 769.032 361.916 774.623 367.228C779.935 372.54 783.709 378.411 785.945 384.841C787.902 391.551 788.461 398.959 787.623 407.067C787.063 414.895 785.386 423.282 782.59 432.228C779.795 441.174 776.44 450.54 772.526 460.325C768.612 470.109 764.419 480.314 759.946 490.937C755.473 501.561 751 512.324 746.527 523.228C742.333 534.41 738.559 545.733 735.204 557.195C732.129 568.658 729.753 580.12 728.075 591.582C726.398 603.324 725.419 615.066 725.14 626.808C725.14 638.27 725.419 649.733 725.978 661.195C726.817 672.657 727.656 683.98 728.495 695.163C729.613 706.345 730.591 717.388 731.43 728.292C731.989 738.915 732.269 749.119 732.269 758.904C732.269 768.969 731.43 778.614 729.753 787.84C728.355 797.065 725.978 805.732 722.624 813.84C718.989 821.947 714.237 829.635 708.366 836.904C702.495 843.893 695.646 850.463 687.818 856.614C679.71 862.485 670.904 868.076 661.399 873.388C651.614 878.7 641.131 883.592 629.948 888.065C619.045 892.538 607.583 896.732 595.561 900.646C583.54 904.839 571.1 908.753 558.24 912.388C545.659 916.022 532.939 919.517 520.079 922.872C507.219 926.226 494.359 929.581 481.499 932.936C468.639 936.291 455.919 939.646 443.338 943C430.758 946.355 418.317 949.85 406.016 953.484C393.436 956.839 380.995 960.473 368.695 964.388C356.114 968.301 343.394 972.495 330.534 976.968C317.394 981.162 304.115 985.635 290.696 990.387C277.277 995.42 263.578 1000.73 249.6 1006.32C235.342 1011.63 220.665 1017.51 205.568 1023.94C190.472 1030.37 174.956 1037.08 159.021 1044.06C142.806 1051.33 126.172 1058.88 109.119 1066.71C92.0651 1074.26 74.8718 1081.81 57.5388 1089.35C40.4854 1096.9 23.4319 1104.03 6.37843 1110.74C-10.675 1117.45 -27.4489 1123.46 -43.9432 1128.77C-60.158 1133.81 -75.6739 1137.86 -90.4908 1140.94C-105.587 1144.01 -119.705 1145.69 -132.845 1145.97C-145.984 1146.25 -157.866 1144.71 -168.489 1141.35C-179.392 1138.28 -188.898 1133.11 -197.005 1125.84Z" fill="url(#paint0_linear_317_490)" fill-opacity="0.8"/>
<defs>
<linearGradient id="paint0_linear_317_490" x1="788" y1="517" x2="-470" y2="517" gradientUnits="userSpaceOnUse">
<stop stop-color="#55AA8B" stop-opacity="0"/>
<stop offset="0.33" stop-color="#316330" stop-opacity="0.7"/>
<stop offset="0.61" stop-color="#192A13"/>
</linearGradient>
</defs>
</svg>
