<svg width="1354" height="973" viewBox="0 0 1354 973" fill="none" xmlns="http://www.w3.org/2000/svg">
<path d="M461 206C488.5 88 85.1667 -105.812 -43 -89.6457V1039H1319C1319 1039 1130 883.167 1066.5 872.5C1004.83 842.167 895.5 756.5 895.5 665C895.5 555.82 772.5 492.367 657 443C518 383.589 396 416 461 206Z" fill="url(#paint0_linear_317_471)" fill-opacity="0.9"/>
<path d="M-44.0012 -97.5828L-51 -96.7V-89.6457V1039V1047H-43H1319H1341.28L1324.09 1032.83L1319 1039C1324.09 1032.83 1324.09 1032.83 1324.09 1032.83L1324.08 1032.82L1324.05 1032.8L1323.95 1032.71L1323.53 1032.37C1323.17 1032.07 1322.63 1031.63 1321.92 1031.05C1320.52 1029.9 1318.44 1028.21 1315.79 1026.06C1310.47 1021.77 1302.82 1015.62 1293.43 1008.21C1274.67 993.39 1248.98 973.512 1221.28 953.289C1193.6 933.081 1163.81 912.45 1136.88 896.169C1110.92 880.477 1086.52 868.132 1069.03 864.826C1039.06 849.914 997.634 821.691 963.657 786.159C929.13 750.051 903.5 707.672 903.5 665C903.5 606.974 870.69 561.749 824.52 525.292C778.424 488.892 717.925 460.341 660.144 435.644C628.067 421.933 596.882 413.04 569.089 405.115C566.291 404.317 563.527 403.528 560.8 402.746C530.624 394.089 505.545 386.285 486.828 374.243C468.671 362.561 456.622 346.956 452.552 321.984C448.381 296.389 452.518 260.459 468.642 208.366L468.727 208.093L468.791 207.816C472.802 190.605 468.789 172.673 459.588 155.052C450.395 137.446 435.743 119.574 417.415 101.98C380.748 66.7775 328.217 31.5958 271.173 0.823807C214.066 -29.9824 152.04 -56.5816 96.127 -74.4841C40.5578 -92.2765 -10.1109 -101.858 -44.0012 -97.5828Z" stroke="black" stroke-opacity="0.6" stroke-width="16"/>
<defs>
<linearGradient id="paint0_linear_317_471" x1="-43" y1="474" x2="1319" y2="474" gradientUnits="userSpaceOnUse">
<stop stop-color="#132151"/>
<stop offset="1" stop-color="#D57252" stop-opacity="0.5"/>
</linearGradient>
</defs>
</svg>
