<svg width="332" height="332" viewBox="0 0 332 332" fill="none" xmlns="http://www.w3.org/2000/svg">
<path fill-rule="evenodd" clip-rule="evenodd" d="M316.972 292.91C314.611 294.902 311.992 296.746 309.115 298.443C306.164 300.066 302.992 301.542 299.598 302.869C296.278 304.197 292.7 305.378 288.864 306.41C285.102 307.517 281.191 308.476 277.134 309.288C273.076 310.173 268.871 310.947 264.518 311.611C260.166 312.349 255.776 312.976 251.35 313.493C246.849 314.083 242.312 314.673 237.738 315.263C233.164 315.779 228.59 316.296 224.016 316.812C219.442 317.329 214.868 317.882 210.294 318.472C205.794 319.062 201.367 319.689 197.015 320.353C192.588 320.943 188.273 321.607 184.067 322.345C179.788 323.083 175.62 323.821 171.563 324.558C167.431 325.222 163.374 325.923 159.39 326.661C155.406 327.325 151.459 327.952 147.549 328.542C143.713 329.132 139.913 329.685 136.151 330.202C132.388 330.644 128.7 331.013 125.085 331.308C121.47 331.603 117.892 331.825 114.35 331.972C110.809 332.046 107.305 331.972 103.838 331.751C100.37 331.603 96.9766 331.308 93.6567 330.866C90.3369 330.349 87.017 329.685 83.6972 328.874C80.4511 328.062 77.2419 327.066 74.0696 325.886C70.9711 324.78 67.9094 323.489 64.8847 322.013C61.7861 320.611 58.7983 319.062 55.9211 317.366C53.0439 315.669 50.2404 313.824 47.5108 311.833C44.7811 309.915 42.1621 307.886 39.6538 305.746C37.1455 303.533 34.7109 301.283 32.3501 298.996C29.9893 296.636 27.7761 294.201 25.7104 291.693C23.571 289.185 21.579 286.64 19.7347 284.058C17.8903 281.402 16.1566 278.709 14.5336 275.98C12.9105 273.25 11.435 270.484 10.1071 267.68C8.85294 264.951 7.67255 262.147 6.56593 259.27C5.53309 256.393 4.64779 253.516 3.91005 250.639C3.09853 247.762 2.43456 244.885 1.91814 242.008C1.32794 239.131 0.885294 236.217 0.590196 233.266C0.295098 230.389 0.110662 227.512 0.0368873 224.635C-0.0368873 221.684 0 218.807 0.147549 216.003C0.295098 213.126 0.553309 210.286 0.922181 207.483C1.21728 204.679 1.65993 201.876 2.25012 199.073C2.76654 196.343 3.39363 193.651 4.13137 190.995C4.79534 188.339 5.56997 185.72 6.45527 183.138C7.34056 180.556 8.29963 178.011 9.33247 175.503C10.3653 172.994 11.435 170.523 12.5417 168.089C13.6483 165.58 14.8287 163.072 16.0828 160.564C17.2632 158.056 18.5174 155.547 19.8453 153.039C21.0995 150.457 22.3906 147.838 23.7185 145.183C25.0464 142.601 26.3744 139.908 27.7023 137.105C29.0303 134.301 30.3582 131.461 31.6861 128.584C33.0141 125.633 34.3051 122.572 35.5593 119.399C36.8872 116.301 38.1414 113.055 39.3218 109.662C40.576 106.268 41.7564 102.764 42.863 99.1491C44.0434 95.4605 45.15 91.6981 46.1828 87.862C47.2895 84.0259 48.3961 80.1529 49.5027 76.243C50.6093 72.3331 51.7159 68.4232 52.8225 64.5133C54.0029 60.6034 55.2202 56.7673 56.4744 53.0049C57.7285 49.1688 59.0565 45.4433 60.4582 41.8285C61.8599 38.2137 63.3354 34.7833 64.8847 31.5374C66.5077 28.2176 68.2414 25.0824 70.0858 22.1315C71.8564 19.2544 73.8114 16.5986 75.9508 14.1642C78.0903 11.8035 80.3773 9.70097 82.8119 7.85668C85.3202 6.01239 87.9761 4.50007 90.7795 3.31972C93.5829 2.13938 96.5708 1.291 99.7431 0.774602C102.842 0.258201 106.088 0 109.481 0C112.875 0 116.379 0.258201 119.994 0.774602C123.535 1.36478 127.187 2.13938 130.95 3.09841C134.638 4.05744 138.364 5.2009 142.127 6.52879C145.889 7.93045 149.615 9.47965 153.303 11.1764C157.066 12.7994 160.792 14.6068 164.48 16.5986C168.169 18.5167 171.747 20.5454 175.214 22.6848C178.756 24.8242 182.186 27.0742 185.506 29.4349C188.826 31.7218 191.998 34.0456 195.023 36.4063C198.121 38.767 201.072 41.2015 203.876 43.7097C206.679 46.1442 209.372 48.6155 211.954 51.1237C214.536 53.632 217.045 56.1771 219.479 58.7591C221.914 61.3411 224.238 63.9231 226.451 66.5051C228.738 69.0871 230.951 71.706 233.091 74.3618C235.23 76.9438 237.296 79.5627 239.288 82.2185C241.353 84.8743 243.345 87.4931 245.263 90.0752C247.255 92.7309 249.21 95.3498 251.128 97.9318C253.12 100.514 255.075 103.096 256.993 105.678C258.912 108.26 260.83 110.842 262.748 113.424C264.74 115.932 266.695 118.44 268.613 120.949C270.605 123.457 272.597 126.002 274.589 128.584C276.507 131.092 278.462 133.6 280.454 136.109C282.372 138.691 284.29 141.273 286.208 143.855C288.126 146.51 290.044 149.166 291.963 151.822C293.807 154.478 295.651 157.207 297.496 160.011C299.34 162.814 301.147 165.654 302.918 168.531C304.689 171.482 306.422 174.47 308.119 177.495C309.816 180.519 311.476 183.654 313.099 186.9C314.648 190.146 316.161 193.466 317.636 196.86C319.185 200.253 320.624 203.72 321.952 207.261C323.28 210.802 324.497 214.38 325.604 217.995C326.71 221.61 327.706 225.225 328.592 228.84C329.477 232.454 330.215 236.069 330.805 239.684C331.321 243.225 331.69 246.729 331.911 250.196C332.059 253.664 332.022 257.057 331.801 260.377C331.579 263.623 331.137 266.795 330.473 269.893C329.809 272.918 328.887 275.795 327.706 278.525C326.452 281.328 324.94 283.91 323.169 286.271C321.399 288.705 319.333 290.918 316.972 292.91Z" fill="#FF5600" fill-opacity="0.2"/>
</svg>
