<svg width="612" height="625" viewBox="0 0 612 625" fill="none" xmlns="http://www.w3.org/2000/svg">
<path fill-rule="evenodd" clip-rule="evenodd" d="M314.254 624.124C308.644 623.707 302.968 622.821 297.225 621.466C291.482 620.111 285.753 618.403 280.038 616.342C274.127 614.246 268.269 611.854 262.465 609.168C256.545 606.562 250.581 603.643 244.572 600.412C238.527 597.377 232.42 594.128 226.251 590.664C220.162 587.316 214.033 583.91 207.864 580.447C201.498 576.947 195.172 573.505 188.887 570.122C182.405 566.702 175.905 563.381 169.387 560.158C162.869 556.935 156.373 553.868 149.899 550.958C143.345 547.931 136.832 544.963 130.358 542.053C123.885 539.142 117.469 536.192 111.112 533.201C104.718 530.407 98.4993 527.493 92.4546 524.458C86.4099 521.423 80.5396 518.268 74.8436 514.992C69.2279 511.832 63.8626 508.414 58.7477 504.737C53.5969 501.256 48.7545 497.477 44.2207 493.398C39.6869 489.32 35.5018 485.001 31.6654 480.44C27.8289 475.88 24.3992 471.039 21.3763 465.917C18.4696 460.715 15.8534 455.312 13.5278 449.708C11.2023 444.104 9.22531 438.26 7.59707 432.174C6.04911 426.205 4.73356 420.075 3.65047 413.785C2.6836 407.414 1.97126 401.04 1.51361 394.661C1.0919 388.085 0.866672 381.546 0.837975 375.042C0.925437 368.458 1.20948 361.91 1.68998 355.399C2.17046 348.887 2.84743 342.411 3.72093 335.971C4.59443 329.53 5.64645 323.225 6.87699 317.053C8.10754 310.881 9.37821 304.768 10.689 298.712C12.1963 292.693 13.8019 286.691 15.5057 280.708C17.1736 274.921 18.8995 269.093 20.6836 263.226C22.4677 257.359 24.3098 251.451 26.2101 245.504C28.0745 239.752 29.9569 233.903 31.8571 227.955C33.7574 222.008 35.6757 215.962 37.612 209.818C39.432 203.754 41.1717 197.574 42.8312 191.278C44.571 185.098 46.2484 178.703 47.8636 172.094C49.4428 165.681 50.9417 159.153 52.3603 152.508C53.8952 145.783 55.3318 139.039 56.6702 132.278C58.2051 125.553 59.722 118.926 61.2209 112.397C62.836 105.788 64.5314 99.2956 66.3071 92.919C68.0828 86.5424 70.0191 80.3983 72.1159 74.4866C74.3289 68.4947 76.7426 62.7933 79.357 57.3824C81.9714 51.9716 84.8266 46.9094 87.9227 42.1959C91.135 37.402 94.6684 33.0731 98.5228 29.2091C102.297 25.2288 106.491 21.7314 111.103 18.7168C115.716 15.7023 120.61 13.0945 125.785 10.8935C130.88 8.57623 136.295 6.72388 142.032 5.33639C147.689 3.8327 153.47 2.75794 159.375 2.11213C165.397 1.38603 171.562 0.990626 177.869 0.925905C184.176 0.861194 190.527 1.1092 196.923 1.66992C203.319 2.23063 209.661 3.08609 215.949 4.2363C222.353 5.30623 228.663 6.61279 234.879 8.15599C241.175 9.81541 247.337 11.6534 253.365 13.6698C259.393 15.6863 265.345 17.8412 271.221 20.1344C277.177 22.5439 283.016 25.0336 288.74 27.6036C294.544 30.2899 300.29 33.0162 305.977 35.7827C311.665 38.5493 317.352 41.3158 323.04 44.0823C328.924 46.8848 334.808 49.6872 340.692 52.4897C346.38 55.2562 352.282 57.9604 358.399 60.6023C364.399 63.3245 370.534 65.8681 376.802 68.2332C382.955 70.6787 389.3 72.9054 395.837 74.9135C402.338 77.1181 408.973 79.1441 415.743 80.9916C422.432 82.723 429.22 84.4722 436.105 86.2395C443.107 87.9265 450.051 89.6536 456.937 91.4208C463.743 93.0719 470.57 94.8793 477.42 96.843C484.19 98.6905 490.883 100.676 497.5 102.801C504.118 104.925 510.583 107.326 516.896 110.004C523.129 112.566 529.151 115.444 534.964 118.64C540.892 121.755 546.454 125.209 551.649 129.002C556.925 132.912 561.891 137.12 566.55 141.628C571.289 146.251 575.62 151.156 579.546 156.342C583.551 161.643 587.226 167.088 590.57 172.675C593.878 178.458 596.757 184.366 599.207 190.399C601.738 196.548 603.897 202.781 605.686 209.099C607.359 215.497 608.678 221.882 609.645 228.252C610.576 234.819 611.056 241.355 611.085 247.858C611.113 254.362 610.709 260.735 609.871 266.979C608.998 273.419 607.651 279.671 605.831 285.735C604.091 291.915 601.919 297.965 599.313 303.885C596.787 309.921 593.886 315.787 590.61 321.483C587.415 327.296 583.983 333.014 580.314 338.638C576.565 344.146 572.717 349.636 568.772 355.108C564.71 360.66 560.608 366.154 556.466 371.59C552.36 376.83 548.236 382.167 544.094 387.603C539.988 392.843 535.882 398.082 531.776 403.322C527.866 408.597 524.055 413.891 520.342 419.202C516.745 424.433 513.246 429.682 509.846 434.95C506.562 440.136 503.318 445.381 500.114 450.684C496.946 455.791 493.916 460.973 491.025 466.232C488.054 471.375 485.082 476.517 482.111 481.659C479.139 486.802 476.168 491.944 473.196 497.087C470.225 502.229 467.213 507.314 464.161 512.34C461.11 517.366 457.902 522.415 454.537 527.485C451.289 532.476 447.844 537.43 444.203 542.348C440.562 547.267 436.782 552.109 432.864 556.875C428.83 561.722 424.716 566.452 420.521 571.066C416.246 575.564 411.792 579.928 407.16 584.157C402.644 588.306 398.008 592.281 393.251 596.082C388.414 599.766 383.475 603.178 378.433 606.317C373.391 609.456 368.265 612.225 363.054 614.622C357.843 617.02 352.548 619.046 347.168 620.702C341.825 622.162 336.396 623.25 330.884 623.968C325.407 624.489 319.864 624.541 314.254 624.124Z" fill="#035F55" fill-opacity="0.2"/>
</svg>
