<?xml version="1.0" encoding="UTF-8" standalone="no"?>
<!-- Created with Inkscape (http://www.inkscape.org/) -->

<svg
   width="246.59166mm"
   height="166.6875mm"
   viewBox="0 0 246.59166 166.6875"
   version="1.1"
   id="svg1"
   xml:space="preserve"
   xmlns:inkscape="http://www.inkscape.org/namespaces/inkscape"
   xmlns:sodipodi="http://sodipodi.sourceforge.net/DTD/sodipodi-0.dtd"
   xmlns="http://www.w3.org/2000/svg"
   xmlns:svg="http://www.w3.org/2000/svg"><sodipodi:namedview
     id="namedview1"
     pagecolor="#ffffff"
     bordercolor="#eeeeee"
     borderopacity="1"
     inkscape:showpageshadow="0"
     inkscape:pageopacity="0"
     inkscape:pagecheckerboard="0"
     inkscape:deskcolor="#d1d1d1"
     inkscape:document-units="mm" /><defs
     id="defs1" /><g
     inkscape:label="Layer 1"
     inkscape:groupmode="layer"
     id="layer1"
     transform="translate(16.005934,-61.452085)"><path
       style="fill:#000000"
       d="m -16.005934,226.02292 v -2.11667 h 7.9374999 7.93749987 v 2.11667 2.11666 H -8.0684341 -16.005934 Z m 16.93333308,0 v -2.11667 H 2.2503157 3.5732324 v 2.11667 2.11666 H 2.2503157 0.92739908 Z m 3.70416662,0 v -2.11667 H 6.483649 8.3357323 v 2.11667 2.11666 H 6.483649 4.6315657 Z m 4.2333333,0 v -2.11667 h 6.35 6.35 v 2.11667 2.11666 h -6.35 -6.35 z m 13.758333,0 v -2.11667 h 1.852083 1.852084 v 2.11667 2.11666 h -1.852084 -1.852083 z m 4.233333,0 v -2.11667 h 32.54375 32.543749 v 2.11667 2.11666 H 59.400315 26.856565 Z m 66.145833,0 v -2.11667 h 15.875002 15.875 v 2.11667 2.11666 h -15.875 -15.875002 z m 32.808332,0 v -2.11667 h 1.32292 1.32291 v 1.85208 1.85209 h 0.26459 0.26458 v 0.26458 0.26458 h -1.5875 -1.5875 z m 3.70417,0 v -2.11667 h 6.35 6.35 v 2.11667 2.11666 h -6.35 -6.35 z m 13.22916,1.85208 v -0.26458 h 0.26459 0.26458 v -0.77171 -0.7717 l -0.33073,-0.15434 -0.33073,-0.15434 0.33073,-0.15434 0.33073,-0.15434 V 225.07482 224.7 h -0.26458 -0.26459 v -0.39688 -0.39687 h 1.5875 1.5875 v 2.11667 2.11666 h -1.5875 -1.5875 z m 4.23334,-1.85208 v -2.11667 h 15.61041 15.61042 v 2.11667 2.11666 H 162.58781 146.9774 Z m 32.27916,0 v -2.11667 h 14.2875 14.2875 v 2.11667 2.11666 h -14.2875 -14.2875 z m 29.63334,0 v -2.11667 h 0.79375 0.79375 v 2.11667 2.11666 h -0.79375 -0.79375 z m 2.64583,0 v -2.11667 h 3.43958 3.43959 v 0.24253 0.24254 l -0.33073,0.1342 -0.33073,0.13419 0.39687,0.30487 0.39688,0.30487 -0.33073,0.1342 -0.33073,0.1342 v 0.48507 0.48506 l 0.33073,0.1342 0.33073,0.1342 -0.39688,0.30487 -0.39687,0.30487 0.33073,0.1342 0.33073,0.13419 v 0.24254 0.24253 h -3.43959 -3.43958 z m 7.40833,0 v -2.11667 h 5.82084 5.82083 v 2.11667 2.11666 h -5.82083 -5.82084 z M -16.005934,214.23006 v -8.61786 l 0.377976,-0.37797 0.377976,-0.37798 h 7.5595241 7.55952367 v 8.99583 8.99584 H -8.0684341 -16.005934 Z m 0.529167,7.42723 V 221.525 h -0.132292 -0.132292 v 0.13229 0.13229 h 0.132292 0.132292 z m 11.6416662,-2.92932 v -3.0616 l -0.3779762,-0.37798 -0.3779762,-0.37797 h -0.302381 -0.3023809 l -0.3779762,0.37797 -0.3779762,0.37798 v 3.0616 3.06161 h 1.0583333 1.0583334 z m -1.5875,-7.52172 v -1.5875 h -0.5291667 -0.5291666 v 1.20179 1.20179 l 0.3307291,0.37565 0.3307292,0.37564 0.1984375,0.0101 0.1984375,0.0101 z m 1.7386904,1.20952 0.3779762,-0.37797 v -1.20953 -1.20952 h -0.5291666 -0.5291667 v 1.5875 1.5875 h 0.1511905 0.1511904 z M 0.92739908,212 V 201.15208 H 2.2503157 3.5732324 V 212 222.84792 H 2.2503157 0.92739908 Z m 3.70416662,0 v -10.84792 h 1.7369694 1.7369695 l 1.288561,-1.32291 1.2885614,-1.32292 h 0.414052 0.414053 v -0.26458 -0.26459 h 0.79375 0.79375 v -0.26458 -0.26458 h 2.116667 2.116667 v 0.26458 0.26458 h 0.793749 0.79375 v 0.26459 0.26458 h 0.414053 0.414053 l 1.288561,1.32292 1.288561,1.32291 h 1.623577 1.623576 l 0.377977,0.37798 0.377976,0.37797 v 10.46994 10.46995 h -1.852084 -1.852083 v -8.99584 -8.99583 h -0.264583 -0.264584 v -0.52917 -0.52916 h -0.264583 -0.264583 v -0.47076 -0.47076 l -0.529167,-0.3814 -0.529167,-0.3814 v -0.47076 -0.47076 h -0.470757 -0.470757 l -0.381402,-0.52916 -0.381402,-0.52917 H 18.33149 17.860732 v -0.26458 -0.26459 h -2.38125 -2.38125 v 0.26459 0.26458 h -0.529166 -0.529167 v 0.26458 0.26459 H 11.634204 11.22851 l -0.917222,0.91722 -0.9172224,0.91722 v 0.40569 0.4057 H 9.1294823 8.864899 v 0.52917 0.52916 H 8.6003156 8.3357323 v 9.26042 9.26042 H 6.483649 4.6315657 Z m 22.2249993,10.31875 v -0.52917 h 5.027084 5.027083 v -5.82083 -5.82083 h -0.264583 -0.264584 v -0.52917 -0.52917 h -0.264583 -0.264583 v -0.41577 -0.41578 l -0.377977,-0.37797 -0.377976,-0.37798 h -0.415774 -0.415773 v -0.26458 -0.26458 h -0.529167 -0.529167 v -0.26459 -0.26458 h -1.5875 -1.5875 v 0.26458 0.26459 h -0.529166 -0.529167 v 0.26458 0.26458 h -0.470757 -0.470758 l -0.381402,0.52917 -0.381401,0.52917 h -0.206175 -0.206174 v -3.32619 -3.3262 l 0.377977,-0.37797 0.377976,-0.37798 H 59.778291 91.944064 V 212 222.84792 H 59.400315 26.856565 Z m 64.558333,-6.55618 v -6.027 l -0.529167,-0.3814 -0.529167,-0.38141 v -0.35736 -0.35737 l -0.377976,-0.37797 -0.377976,-0.37798 h -0.415774 -0.415774 v -0.26458 -0.26458 h -0.529166 -0.529167 v -0.26459 -0.26458 h -1.5875 -1.5875 v 0.26458 0.26459 h -0.529166 -0.529167 v 0.26458 0.26458 h -0.431987 -0.431986 l -0.488432,0.56317 -0.488433,0.56317 -0.773234,-0.82775 -0.773235,-0.82775 h -0.423013 -0.423013 v -0.26459 -0.26458 h -1.5875 -1.5875 v 0.26458 0.26459 h -0.529167 -0.529167 v 0.26458 0.26458 h -0.431986 -0.431987 l -0.488432,0.56317 -0.488432,0.56317 -0.773235,-0.82775 -0.773234,-0.82775 h -0.423014 -0.423013 v -0.26459 -0.26458 h -1.5875 -1.5875 v 0.26458 0.26459 h -0.529167 -0.529166 v 0.26458 0.26458 h -0.431987 -0.431986 l -0.488432,0.56317 -0.488433,0.56317 -0.773234,-0.82775 -0.773235,-0.82775 h -0.423013 -0.423013 v -0.26459 -0.26458 h -1.5875 -1.5875 v 0.20687 0.20688 l -0.686787,0.0568 -0.686786,0.0568 -0.768422,0.8226 -0.768422,0.8226 -0.767612,-0.82173 -0.767612,-0.82173 h -0.687596 -0.687597 v -0.26459 -0.26458 h -1.5875 -1.5875 v 0.26458 0.26459 h -0.423013 -0.423013 l -0.773235,0.82775 -0.773235,0.82775 -0.488432,-0.56317 -0.488432,-0.56317 h -0.431987 -0.431986 v -0.26458 -0.26458 h -0.529167 -0.529166 v -0.26459 -0.26458 h -1.5875 -1.5875 v 0.26458 0.26459 h -0.403838 -0.403838 l -1.183662,1.18366 -1.183662,1.18366 v 0.40384 0.40384 h -0.264583 -0.264584 v 5.82083 5.82083 h 26.722916 26.722917 z m -52.387499,-0.46224 v -5.43092 l 1.183662,-1.18367 1.183662,-1.18366 h 1.991338 1.991337 v 0.26459 0.26458 h 0.415774 0.415774 l 0.377976,0.37798 0.377976,0.37797 v 0.41578 0.41577 h 0.423014 0.423013 l 0.741473,-0.79375 0.741474,-0.79375 h 0.423013 0.423013 v -0.26458 -0.26459 h 1.852084 1.852083 v 0.26459 0.26458 h 0.423013 0.423013 l 0.767612,0.82173 0.767612,0.82173 0.767612,-0.82173 0.767611,-0.82173 h 0.423014 0.423013 v -0.26458 -0.26459 h 1.852083 1.852084 v 0.26459 0.26458 h 0.423013 0.423013 l 0.741473,0.79375 0.741474,0.79375 h 0.423013 0.423013 v -0.41577 -0.41578 l 0.377977,-0.37797 0.377976,-0.37798 h 0.415774 0.415773 v -0.26458 -0.26459 h 2.005119 2.005118 l 1.016847,1.05834 1.016846,1.05833 h 0.417619 0.417618 v -0.41577 -0.41578 l 0.377976,-0.37797 0.377976,-0.37798 h 0.415774 0.415774 v -0.26458 -0.26459 h 2.005118 2.005119 l 1.016846,1.05834 1.016847,1.05833 h 0.30607 0.30607 l 1.016847,-1.05833 1.016846,-1.05834 h 1.879789 1.87979 l 1.183662,1.18366 1.183662,1.18367 v 0.66842 0.66842 h 0.264584 0.264583 v 4.7625 4.7625 H 64.956565 39.027399 Z m 7.408333,-0.12533 v -4.49792 h -0.264584 -0.264583 v -0.41577 -0.41578 l -0.377976,-0.37797 -0.377976,-0.37798 h -0.415774 -0.415774 v -0.26458 -0.26458 h -0.79375 -0.79375 v 0.26458 0.26458 h -0.405694 -0.405695 l -0.917222,0.91722 -0.917222,0.91723 v 3.98873 3.98874 l 0.330729,0.37564 0.330729,0.37565 2.844271,0.0101 2.844271,0.0101 z m 8.466666,-0.14432 v -4.64223 l -0.649432,-0.64944 -0.649431,-0.64943 h -0.408902 -0.408901 v -0.26458 -0.26458 h -0.79375 -0.79375 v 0.26458 0.26458 H 50.78933 50.380429 l -0.649432,0.64943 -0.649432,0.64944 v 0.4089 0.4089 h -0.264583 -0.264584 v 3.84762 3.84763 l 0.33073,0.37564 0.330729,0.37565 2.84427,0.0101 2.844271,0.0101 z m 8.617857,4.26426 0.377976,-0.37798 v -3.85535 -3.85536 h -0.264583 -0.264583 v -0.4089 -0.4089 l -0.649432,-0.64944 -0.649432,-0.64943 H 61.6613 61.252398 v -0.26458 -0.26458 h -0.79375 -0.79375 v 0.26458 0.26458 h -0.408901 -0.408902 l -0.649432,0.64943 -0.649431,0.64944 v 4.64223 4.64224 h 2.797023 2.797024 z m 8.466667,0 0.377976,-0.37798 v -3.85535 -3.85536 h -0.264583 -0.264584 v -0.4089 -0.4089 l -0.649431,-0.64944 -0.649432,-0.64943 h -0.408902 -0.408901 v -0.26458 -0.26458 h -0.79375 -0.79375 v 0.26458 0.26458 h -0.408902 -0.408901 l -0.649432,0.64943 -0.649432,0.64944 v 4.64223 4.64224 h 2.797024 2.797024 z m 8.466666,0 0.377977,-0.37798 v -3.99647 -3.99646 l -0.917223,-0.91723 -0.917222,-0.91722 h -0.405694 -0.405695 v -0.26458 -0.26458 h -0.79375 -0.79375 v 0.26458 0.26458 h -0.415774 -0.415773 l -0.377976,0.37798 -0.377977,0.37797 v 0.41578 0.41577 h -0.264583 -0.264583 v 4.49792 4.49792 h 2.797023 2.797024 z m 8.844643,-4.11994 v -4.49792 h -0.264583 -0.264584 v -0.41577 -0.41578 l -0.377976,-0.37797 -0.377976,-0.37798 h -0.415774 -0.415774 v -0.26458 -0.26458 h -1.058333 -1.058333 v 0.26458 0.26458 H 84.649124 84.23335 l -0.377976,0.37798 -0.377976,0.37797 v 0.41578 0.41577 h -0.264583 -0.264584 v 4.49792 4.49792 h 3.175 3.175 z M 93.002398,212 v -10.84792 h 15.875002 15.875 V 212 222.84792 h -15.875 -15.875002 z m 31.220832,4.23333 v -5.55625 h -0.26458 -0.26459 v -0.66842 -0.66842 l -1.18366,-1.18366 -1.18366,-1.18366 h -0.40384 -0.40384 v -0.26459 -0.26458 h -1.5875 -1.5875 v 0.26458 0.26459 h -0.68759 -0.6876 l -0.76761,0.82173 -0.76761,0.82173 -0.76761,-0.82173 -0.76762,-0.82173 h -0.68759 -0.6876 v -0.26459 -0.26458 h -1.5875 -1.5875 v 0.26458 0.26459 h -0.42301 -0.42302 l -0.76761,0.82173 -0.76761,0.82173 -0.76761,-0.82173 -0.76761,-0.82173 h -0.6876 -0.6876 v -0.26459 -0.26458 h -1.5875 -1.587496 v 0.26458 0.26459 h -0.403837 -0.403838 l -1.183662,1.18366 -1.183663,1.18366 v 0.40384 0.40384 h -0.264583 -0.264583 v 5.82083 5.82083 h 14.022912 14.02292 z m -26.987499,-0.933 v -5.43092 l 1.183662,-1.18367 1.183663,-1.18366 h 1.991334 1.99134 v 0.26459 0.26458 h 0.42301 0.42302 l 0.76761,0.82173 0.76761,0.82173 0.76761,-0.82173 0.76761,-0.82173 h 0.42302 0.42301 v -0.26458 -0.26459 h 1.85208 1.85209 v 0.26459 0.26458 h 0.42301 0.42301 l 0.76762,0.82173 0.76761,0.82173 0.76761,-0.82173 0.76761,-0.82173 h 0.42301 0.42302 v -0.26458 -0.26459 h 1.85208 1.85208 v 0.26459 0.26458 h 0.40891 0.4089 l 0.64943,0.64943 0.64943,0.64943 v 0.4089 0.40891 h 0.26458 0.26459 v 5.29166 5.29167 H 110.20031 97.235731 Z m 7.408329,-0.26965 v -4.64223 l -0.64943,-0.64944 -0.64943,-0.64943 h -0.4089 -0.4089 v -0.26458 -0.26458 h -0.79375 -0.79375 v 0.26458 0.26458 h -0.4089 -0.40891 l -0.649427,0.64943 -0.649432,0.64944 v 0.4089 0.4089 h -0.264583 -0.264584 v 3.84762 3.84763 l 0.330729,0.37564 0.33073,0.37565 2.844267,0.0101 2.84427,0.0101 z m 8.46667,0 v -4.64223 l -0.64943,-0.64944 -0.64943,-0.64943 h -0.4089 -0.40891 v -0.26458 -0.26458 h -0.79375 -0.79375 v 0.26458 0.26458 h -0.4089 -0.4089 l -0.64943,0.64943 -0.64943,0.64944 v 0.4089 0.4089 h -0.26459 -0.26458 v 3.84762 3.84763 l 0.33073,0.37564 0.33073,0.37565 2.84427,0.0101 2.84427,0.0101 z m 8.61786,4.26426 0.37797,-0.37798 v -3.85535 -3.85536 h -0.26458 -0.26458 v -0.4089 -0.4089 l -0.64943,-0.64944 -0.64944,-0.64943 h -0.4089 -0.4089 v -0.26458 -0.26458 h -0.79375 -0.79375 v 0.26458 0.26458 h -0.4089 -0.4089 l -0.64943,0.64943 -0.64944,0.64944 v 4.64223 4.64224 h 2.79703 2.79702 z M 125.81073,212 v -10.84792 h 1.21137 1.21137 l 1.01684,-1.05833 1.01685,-1.05833 h 0.41762 0.41762 v -0.26459 -0.26458 h 0.52916 0.52917 v -0.26458 -0.26459 h 0.79375 0.79375 v -0.26458 -0.26458 h 2.11667 2.11666 v 0.26458 0.26458 h 0.79375 0.79375 v 0.26459 0.26458 h 0.47076 0.47076 l 0.3814,0.52917 0.3814,0.52916 h 0.35737 0.35736 l 0.37798,0.37798 0.37797,0.37797 v 0.41578 0.41577 h 1.5875 1.5875 V 212 222.84792 h -1.5875 -1.5875 v -5.43958 -5.43957 l 0.26459,0.16352 0.26458,0.16352 v -0.25815 -0.25815 l -0.33073,-0.13419 -0.33073,-0.1342 0.39688,-0.28473 0.39687,-0.28472 -0.31865,-0.20659 -0.31866,-0.20659 0.0414,-0.65331 0.0414,-0.65331 0.27728,-0.19843 0.27727,-0.19844 -0.39687,-0.28473 -0.39688,-0.28472 0.34177,-0.13788 0.34178,-0.13788 -0.32476,-0.39131 -0.32476,-0.39131 0.37986,-0.26456 0.37986,-0.26456 -0.33073,-0.1342 -0.33073,-0.1342 v -1.30087 -1.30086 h -0.26458 -0.26458 v -0.40384 -0.40384 l -1.18367,-1.18366 -1.18366,-1.18366 h -0.40384 -0.40383 v -0.26459 -0.26458 h -0.52917 -0.52917 v -0.26458 -0.26459 h -2.11666 -2.11667 v 0.26459 0.26458 h -0.52917 -0.52916 v 0.26458 0.26459 h -0.40384 -0.40384 l -1.18366,1.18366 -1.18366,1.18366 v 0.40384 0.40384 h -0.26459 -0.26458 v 1.32291 1.32292 h -0.26458 -0.26459 v 7.38628 7.38629 l 0.33073,0.1342 0.33073,0.13419 -0.39687,0.30487 -0.39688,0.30487 0.33073,0.1342 0.33073,0.1342 v 0.24253 0.24254 h -1.5875 -1.5875 z m 17.4625,9.92187 v -0.13229 h -0.13229 -0.13229 v 0.13229 0.1323 h 0.13229 0.13229 z M 146.9774,212 v -10.84792 h 15.61041 15.61042 V 212 222.84792 H 162.58781 146.9774 Z m 28.20054,9.40809 0.38149,-0.3815 -0.0375,-1.72978 -0.0375,-1.72978 -0.2306,0.14252 -0.23059,0.14251 v -0.67707 -0.67707 h 0.26458 0.26459 v -2.11667 -2.11667 h -0.26459 -0.26458 v -1.32291 -1.32292 h -0.26458 -0.26459 v -0.4089 -0.4089 l -0.64943,-0.64944 -0.64943,-0.64943 h -0.4089 -0.4089 v -0.26458 -0.26458 h -0.52917 -0.52917 v -0.26459 -0.26458 h -1.5875 -1.5875 v 0.26458 0.26459 h -0.42301 -0.42301 l -0.77324,0.82775 -0.77323,0.82775 -0.48843,-0.56317 -0.48844,-0.56317 h -0.43198 -0.43199 v -0.26458 -0.26458 h -0.52917 -0.52916 v -0.26459 -0.26458 h -1.5875 -1.5875 v 0.26458 0.26459 h -0.42302 -0.42301 l -0.80856,0.85989 -0.80857,0.8599 -0.11339,-0.33073 -0.11338,-0.33073 -0.57327,-0.004 -0.57326,-0.004 0.39687,-0.25648 0.39688,-0.25648 -0.59531,-0.004 -0.59532,-0.004 v -0.26458 -0.26458 h -0.52916 -0.52917 v -0.26459 -0.26458 h -1.5875 -1.5875 v 0.26458 0.26459 h -0.52917 -0.52916 v 0.26458 0.26458 h -0.4089 -0.40891 l -0.64943,0.64943 -0.64943,0.64944 v 0.4089 0.4089 h -0.26458 -0.26459 v 6.08542 6.08541 h 13.64494 13.64494 z m -27.14221,-5.70392 v -5.02709 h 0.26458 0.26459 v -0.52916 -0.52917 h 0.26458 0.26458 v -0.52917 -0.52916 h 0.47076 0.47076 l 0.3814,-0.52917 0.3814,-0.52917 h 1.94671 1.94671 l 1.01685,1.05834 1.01684,1.05833 h 0.30607 0.30607 l 1.01685,-1.05833 1.01685,-1.05834 h 1.94671 1.9467 l 0.38141,0.52917 0.3814,0.52917 h 0.47076 0.47075 v 0.52916 0.52917 h 0.42302 0.42301 l 0.74147,-0.79375 0.74148,-0.79375 h 0.42301 0.42301 v -0.26458 -0.26459 h 1.85209 1.85208 v 0.26459 0.26458 h 0.41577 0.41578 l 0.37797,0.37798 0.37798,0.37797 v 0.41578 0.41577 h 0.26458 0.26459 v 0.52917 0.52916 h 0.26458 0.26458 v 5.02709 5.02708 H 161.2649 148.03573 Z m 7.9375,-0.52917 v -4.49792 h -0.26458 -0.26459 v -0.41577 -0.41578 l -0.37797,-0.37797 -0.37798,-0.37798 h -0.41577 -0.41578 v -0.26458 -0.26458 h -1.05833 -1.05833 v 0.26458 0.26458 h -0.41578 -0.41577 l -0.37798,0.37798 -0.37797,0.37797 v 0.41578 0.41577 h -0.26459 -0.26458 v 4.49792 4.49792 h 3.175 3.175 z m 8.46667,0 v -4.49792 h -0.26459 -0.26458 v -0.41577 -0.41578 l -0.37798,-0.37797 -0.37797,-0.37798 h -0.41578 -0.41577 v -0.26458 -0.26458 h -0.79375 -0.79375 v 0.26458 0.26458 h -0.52917 -0.52916 v 0.26459 0.26458 h -0.52917 -0.52917 v 0.52917 0.52916 h -0.26458 -0.26458 v 4.49792 4.49792 h 3.175 3.175 z m 8.46666,0 v -4.49792 h -0.26458 -0.26458 v -0.41577 -0.41578 l -0.37798,-0.37797 -0.37798,-0.37798 h -0.41577 -0.41577 v -0.26458 -0.26458 h -0.79375 -0.79375 v 0.26458 0.26458 h -0.4057 -0.40569 l -0.91722,0.91722 -0.91723,0.91723 v 3.98873 3.98874 l 0.33073,0.37564 0.33073,0.37565 2.84427,0.0101 2.84427,0.0101 z m -24.34166,-4.10104 v -0.13229 h -0.13229 -0.1323 v 0.13229 0.13229 h 0.1323 0.13229 z m 7.9375,-2.64584 v -0.13229 h 0.13229 0.13229 v 0.13229 0.1323 h -0.13229 -0.13229 z M 179.25656,212 v -10.84792 h 14.2875 14.2875 V 212 222.84792 h -14.2875 -14.2875 z m 24.87084,4.23333 v -5.55625 h -0.26459 -0.26458 v -0.4089 -0.4089 l -0.64943,-0.64943 -0.64943,-0.64943 h -0.40891 -0.4089 v -0.26459 -0.26458 h -1.85208 -1.85208 v 0.26458 0.26459 h -0.43199 -0.43199 l -0.48843,0.56316 -0.48843,0.56317 -0.77324,-0.82775 -0.77323,-0.82775 h -1.74593 -1.74593 v 0.26458 0.26459 h -0.43199 -0.43198 l -0.49406,0.56965 -0.49405,0.56965 -0.49406,-0.56965 -0.49405,-0.56965 h -0.43199 -0.43199 v -0.26459 -0.26458 h -1.72675 -1.72676 l -1.18366,1.18366 -1.18366,1.18366 v 0.40384 0.40384 h -0.26458 -0.26459 v 5.29167 5.29166 h 11.64167 11.64167 z m -22.225,-0.52916 v -5.02709 h 0.26458 0.26458 v -0.52916 -0.52917 h 0.52917 0.52917 l 0.002,-0.19844 0.002,-0.19844 0.71215,-0.33073 0.71214,-0.33072 h 0.87329 0.8733 v 0.26458 0.26458 h 0.42301 0.42301 l 0.76761,0.82173 0.76762,0.82173 0.76761,-0.82173 0.76761,-0.82173 h 0.42301 0.42302 v -0.26458 -0.26458 h 1.05833 1.05833 v 0.26458 0.26458 h 0.52917 0.52917 v 0.26459 0.26458 h 0.52916 0.52917 v 0.52917 0.52916 h 0.15843 0.15843 l 0.74147,-0.79375 0.74148,-0.79375 h 0.42301 0.42301 v -0.26458 -0.26458 h 1.32292 1.32292 v 0.26458 0.26458 h 0.4089 0.4089 l 0.64943,0.64943 0.64943,0.64944 v 0.67348 0.67349 h 0.26459 0.26458 v 4.49791 4.49792 h -10.8478 -10.84791 z m 6.35,-0.14432 v -4.11307 l -0.64944,-0.64943 -0.64943,-0.64943 h -0.4089 -0.4089 v -0.26459 -0.26458 h -0.67028 -0.67028 l -0.91722,0.91722 -0.91722,0.91722 v 4.10986 4.10987 h 2.64583 2.64584 z m 6.87916,0.003 v -4.10986 l -0.91722,-0.91722 -0.91722,-0.91722 h -0.67028 -0.67028 v 0.26458 0.26459 h -0.4089 -0.4089 l -0.64943,0.64943 -0.64943,0.64943 v 4.11307 4.11307 h 2.64583 2.64583 z m 7.40834,0.4057 v -3.70417 h -0.26459 -0.26458 v -0.68036 -0.68035 l -0.37798,-0.37798 -0.37797,-0.37797 h -0.41578 -0.41577 v -0.26459 -0.26458 h -0.79375 -0.79375 v 0.26458 0.26459 h -0.41577 -0.41578 l -0.37797,0.37797 -0.37798,0.37798 v 4.38452 4.38453 h 2.64583 2.64584 z M 208.8899,212 v -10.84792 h 0.79375 0.79375 V 212 222.84792 h -0.79375 -0.79375 z m 2.64583,-0.26458 v -11.1125 h 0.26458 0.26459 v -0.41578 -0.41577 l 0.37797,-0.37798 0.37798,-0.37797 h 0.41577 0.41578 v -0.26459 -0.26458 h 1.05833 1.05833 v 0.26458 0.26459 h 0.4089 0.40891 l 0.64943,0.64943 0.64943,0.64943 v 0.4089 0.4089 h 0.26458 0.26459 v 0.50712 0.50712 l -0.33073,0.1342 -0.33073,0.13419 0.39687,0.28473 0.39688,0.28473 -0.39688,0.26458 -0.39687,0.26458 0.39687,0.28473 0.39688,0.28472 -0.33073,0.1342 -0.33073,0.1342 v 0.74965 0.74965 l 0.33073,0.15435 0.33073,0.15434 -0.33073,0.15434 -0.33073,0.15434 v 0.7717 0.7717 h 0.26458 0.26459 v 3.41753 3.41754 l -0.33073,0.15434 -0.33073,0.15434 0.33073,0.15434 0.33073,0.15434 v 0.50712 0.50712 h -0.24814 -0.24814 l 0.0399,0.52916 0.0399,0.52917 h 0.20828 0.20828 v 0.7717 0.7717 l -0.33073,0.15434 -0.33073,0.15434 0.33073,0.15434 0.33073,0.15434 v 0.48507 0.48507 l -0.33073,0.1342 -0.33073,0.1342 0.39687,0.28472 0.39688,0.28473 -0.39688,0.28472 -0.39687,0.28473 0.33073,0.1342 0.33073,0.1342 v 0.24253 0.24254 h -1.05834 -1.05833 v -3.175 -3.175 h -0.2802 -0.2802 l 0.16352,0.26458 0.16353,0.26458 h -0.91961 -0.91961 l -0.10946,-0.32836 -0.10945,-0.32837 -0.44176,0.44176 -0.44176,0.44176 v 2.79702 2.79703 h -0.79375 -0.79375 z m 4.7625,-3.06161 v -6.23661 l -0.37798,-0.37797 -0.37797,-0.37798 h -0.5601 -0.56009 l -0.64943,0.64943 -0.64943,0.64943 v 5.57945 5.57944 l 0.33073,0.37564 0.33073,0.37565 1.25677,0.0101 1.25677,0.0101 z m 2.64583,5.97202 v -8.20208 h 5.82084 5.82083 v 8.20208 8.20209 h -5.82083 -5.82084 z m 3.32619,6.76578 0.37798,-0.37798 v -3.74196 -3.74197 l -0.37798,-0.37798 -0.37797,-0.37797 h -0.41578 -0.41577 v 4.11221 4.11221 l 0.33073,0.37564 0.33073,0.37564 0.085,0.0101 0.085,0.0101 z m 3.175,0 0.37798,-0.37798 v -3.74196 -3.74197 l -0.37798,-0.37798 -0.37797,-0.37797 h -0.41578 -0.41577 v 4.49792 4.49791 h 0.41577 0.41578 z m 3.175,0 0.37798,-0.37798 v -3.74196 -3.74197 l -0.37798,-0.37798 -0.37797,-0.37797 h -0.41578 -0.41577 v 4.49792 4.49791 h 0.41577 0.41578 z M 10.981566,215.43958 v -6.87916 h 2.116666 2.116667 v 6.87916 6.87917 h -2.116667 -2.116666 z m 4.7625,0 v -6.87916 h 1.852083 1.852083 v 6.87916 6.87917 h -1.852083 -1.852083 z m 115.887494,0 v -6.87916 h 1.85209 1.85208 v 6.87916 6.87917 h -1.85208 -1.85209 z m 4.7625,0 v -6.87916 h 1.85209 1.85208 v 6.87916 6.87917 h -1.85208 -1.85209 z m -109.537495,0.52917 v -4.7625 h 0.264584 0.264583 v -0.66842 -0.66842 l 1.183662,-1.18367 1.183663,-1.18366 h 1.932928 1.932929 l 0.381401,0.52917 0.381402,0.52917 h 0.470757 0.470758 v 0.52916 0.52917 h 0.264583 0.264584 v 0.79375 0.79375 h 0.264583 0.264583 v 4.7625 4.7625 h -4.7625 -4.7625 z m 7.9375,-0.79375 v -4.49792 h -0.264583 -0.264583 v -0.41577 -0.41578 l -0.377977,-0.37797 -0.377976,-0.37798 h -0.415774 -0.415773 v -0.26458 -0.26458 h -1.058334 -1.058333 v 0.26458 0.26458 h -0.415774 -0.415774 l -0.377976,0.37798 -0.377976,0.37797 v 0.41578 0.41577 h -0.264583 -0.264584 v 4.49792 4.49792 h 3.175 3.175 z m -23.812499,-8.20208 v -0.52917 h 0.264583 0.264583 v -0.67349 -0.67348 l 0.649432,-0.64943 0.649432,-0.64943 h 0.408901 0.408902 v -0.26459 -0.26458 h 1.726754 1.726755 l 1.183662,1.18366 1.183662,1.18366 v 0.93301 0.933 h -4.233333 -4.233333 z m 120.649994,-0.26459 v -0.79375 h 0.26459 0.26458 v -0.4089 -0.4089 l 0.64943,-0.64943 0.64943,-0.64943 h 0.40891 0.4089 v -0.26459 -0.26458 h 1.5875 1.5875 v 0.26458 0.26459 h 0.4089 0.4089 l 0.64943,0.64943 0.64943,0.64943 v 0.4089 0.4089 h 0.26459 0.26458 v 0.79375 0.79375 h -4.23333 -4.23334 z m 87.3125,-3.175 v -2.38125 h 0.26459 0.26458 v 0.26459 0.26458 h 0.79375 0.79375 v 0.26458 0.26459 h 0.52917 0.52916 v 0.26458 0.26458 h 0.79375 0.79375 v 0.26459 0.26458 h 0.52917 0.52917 v 0.26458 0.26459 h 0.79375 0.79375 v 0.26458 0.26458 h 0.52916 0.52917 v 0.26459 0.26458 h 0.79375 0.79375 v 0.26458 0.26459 h 0.52917 0.52916 v 0.26458 0.26458 h -5.55625 -5.55625 z m -229.592182,0.43394 -0.595312,-0.29483 v -2.84768 -2.84768 h 5.5562498 5.55624997 v 3.175 3.175 h -0.26458333 -0.26458333 l -2.2047e-4,-0.19844 -2.2046e-4,-0.19843 -4.34320658,-0.0768 -4.3432066,-0.0768 -0.1701045,0.27524 -0.1701044,0.27523 -0.1828226,-0.0325 -0.1828225,-0.0325 z m 16.8671877,-5.47143 v -2.12708 l 4.2333333,0.0342 4.233333,0.0342 v 0.24083 0.24082 h -1.322916 -1.322917 v 0.26458 0.26459 h -0.529167 -0.529166 v 0.26458 0.26458 H 10.567513 10.15346 L 8.864899,199.3 7.5763379,200.62292 H 6.8977018 6.2190657 Z m 16.2057293,1.7313 -0.33073,-0.37564 v -0.40804 -0.40804 h -0.423013 -0.423013 l -0.741474,-0.79375 -0.741473,-0.79375 h -0.687597 -0.687596 v -0.26459 -0.26458 h -1.058333 -1.058334 v -0.26458 -0.26459 h 4.233333 4.233334 v 2.11667 2.11667 l -0.992188,-0.0101 -0.992187,-0.0101 z m 186.994265,0.13119 v -0.26458 h -0.52916 -0.52917 v -0.26458 -0.26459 h 1.32292 1.32291 v 0.52917 0.52917 h -0.79375 -0.79375 z m -4.23333,-2.11666 v -0.26459 h -0.52917 -0.52916 v -0.26458 -0.26458 h -0.52917 -0.52917 v -0.26459 -0.26458 h -0.52916 -0.52917 v -0.26458 -0.26459 h -0.52917 -0.52916 v -0.26458 -0.26458 h -1.32292 -1.32292 v -4.49792 -4.49792 h 2.2697 2.26971 l 1.01684,-1.05833 1.01685,-1.05833 h 1.09982 1.09982 l 1.01685,1.05833 1.01684,1.05833 h 1.47595 1.47596 v 5.82084 5.82083 h -3.43959 -3.43958 z m 2.11667,-4.91369 v -4.64911 l -0.37798,-0.37798 -0.37798,-0.37797 h -0.56696 -0.56696 l -0.37798,0.37797 -0.37798,0.37798 v 4.2634 4.2634 l 0.33073,0.37564 0.33073,0.37564 0.99219,0.0101 0.99219,0.0101 z m -217.487501,-1.43631 v -5.55625 h 1.036285 1.0362847 l 0.1543402,-0.33073 0.1543403,-0.33073 0.1543403,0.33073 0.1543403,0.33073 h 4.2112846 4.21128468 v 4.7625 4.7625 H 0.39823242 -0.13093423 v 0.79375 0.79375 H -5.1580175 -10.185101 Z m 12.1708334,-1.05834 v -5.02708 H 16.537816 31.089899 v 5.02708 5.02709 h -3.326191 -3.32619 l -0.377976,-0.37798 -0.377977,-0.37798 v -0.5742 -0.5742 l -0.79375,-0.74148 -0.79375,-0.74147 v -0.42301 -0.42302 h -0.423013 -0.423013 l -0.741474,-0.79375 -0.741473,-0.79375 h -0.687597 -0.687596 v -0.26458 -0.26458 h -0.944941 -0.94494 l -0.377976,-0.37798 -0.377976,-0.37798 v -0.41577 -0.41577 h 0.264583 0.264583 v -0.41578 -0.41577 l -0.393439,-0.39344 -0.393439,-0.39344 -0.664894,0.6649 -0.664894,0.66489 v 0.14432 0.14432 h 0.529166 0.529167 v 0.41577 0.41577 l -0.377976,0.37798 -0.377976,0.37798 h -1.209524 -1.209524 v 0.26458 0.26458 h -0.529167 -0.529166 v 0.26459 0.26458 H 10.577728 10.17389 l -1.1836621,1.18366 -1.1836623,1.18366 v 0.40384 0.40384 H 7.5419823 7.277399 v 0.4089 0.4089 l -0.6494318,0.64943 -0.6494318,0.64944 H 3.9821339 1.9857324 Z M 31.619065,189.775 v -6.08542 h 6.556174 6.556174 l 0.381402,-0.52916 0.381402,-0.52917 h 1.529091 1.52909 v 0.26458 0.26459 h 0.79375 0.79375 v -0.26459 -0.26458 h 1.264508 1.264507 l 0.381402,0.52917 0.381402,0.52916 h 3.851931 3.851932 l 0.381402,-0.52916 0.381401,-0.52917 h 1.529091 1.529091 v 0.26458 0.26459 h 0.79375 0.79375 v -0.26459 -0.26458 h 1.529091 1.52909 l 0.381402,0.52917 0.381402,0.52916 h 3.645757 3.645758 v -0.26458 -0.26458 h 0.529166 0.529167 v -0.26459 -0.26458 h 1.225736 1.225737 l 0.494055,0.56965 0.494055,0.56965 0.494055,-0.56965 0.494056,-0.56965 h 1.373643 1.373643 l -0.163522,0.26458 -0.163521,0.26459 h 0.544781 0.544782 v 0.26458 0.26458 h 1.852083 1.852083 v 6.08542 6.08542 H 60.987815 31.619065 Z m 16.933333,0.64943 v -3.31932 l -0.649431,-0.64943 -0.649432,-0.64943 h -0.295509 -0.295509 l -0.377976,0.37798 -0.377976,0.37797 v 2.21494 2.21494 l -0.3175,0.3175 -0.3175,0.3175 h 0.3175 0.3175 v 0.66146 0.66146 H 45.63155 45.356535 l 0.341161,0.38681 0.341161,0.38681 1.256771,0.0101 1.25677,0.0101 z m 4.233334,0 v -3.31932 l -0.708061,-0.70806 -0.708061,-0.70806 -0.107738,0.32321 -0.107738,0.32322 h -0.507118 -0.507118 v 3.70416 3.70417 h 1.322917 1.322917 z m 12.170833,0 v -3.31932 l -0.708061,-0.70806 -0.708061,-0.70806 -0.107738,0.32321 -0.107737,0.32322 H 62.81785 62.310732 v 3.70416 3.70417 h 1.322916 1.322917 z m 4.233333,-0.38485 v -3.70416 H 68.68278 68.175662 l -0.107738,-0.32322 -0.107737,-0.32321 -0.708061,0.70806 -0.708061,0.70806 v 3.31932 3.31932 h 1.322916 1.322917 z m 12.170833,0.38485 v -3.31932 l -0.708061,-0.70806 -0.708061,-0.70806 -0.107737,0.32321 -0.107738,0.32322 h -0.507118 -0.507118 v 3.70416 3.70417 h 1.322917 1.322916 z m 4.233333,-0.38485 v -3.70416 h -0.507118 -0.507118 l -0.107737,-0.32322 -0.107738,-0.32321 -0.708061,0.70806 -0.708061,0.70806 v 3.31932 3.31932 h 1.322917 1.322916 z m 5.291667,-1.85208 v -7.67292 h 4.7625 4.762499 v 7.67292 7.67292 h -4.762499 -4.7625 z m 8.08869,4.64911 0.377977,-0.37798 v -2.67676 -2.67676 l -0.661459,-0.66146 -0.661458,-0.66145 -0.661458,0.66145 -0.661459,0.66146 v 3.05474 3.05473 h 0.944941 0.94494 z m 2.494639,-4.64911 v -7.67292 h 3.96875 3.96875 v 7.67292 7.67292 h -3.96875 -3.96875 z m 8.99584,-1.32292 v -8.99583 h 1.9964 1.9964 l 0.64943,-0.64943 0.64943,-0.64943 v -0.40891 -0.4089 h 0.26459 0.26458 v -0.52916 -0.52917 h 0.26458 0.26459 v -0.42301 -0.42302 l 0.79375,-0.74147 0.79375,-0.74147 v -0.29954 -0.29955 l 0.91722,-0.91722 0.91722,-0.91722 h 0.29954 0.29954 l 0.74148,-0.79375 0.74147,-0.79375 h 0.42301 0.42302 v -0.26458 -0.26459 h 0.52916 0.52917 V 167.55 167.28542 h 0.52917 0.52916 v -0.26459 -0.26458 h 0.52917 0.52917 v -0.26458 -0.26459 h 0.79375 0.79375 v -0.26458 -0.26458 h 1.32291 1.32292 v -0.26459 -0.26458 h 2.64583 2.64584 v 0.26458 0.26459 h 1.32291 1.32292 v 0.26458 0.26458 h 0.79375 0.79375 v 0.26459 0.26458 h 0.52917 0.52916 v 0.26458 0.26459 h 0.52917 0.52917 v 0.26458 0.26458 h 0.52916 0.52917 v 0.26459 0.26458 h 0.40027 0.40026 l 2.51015,2.51015 2.51015,2.51015 v 0.34186 0.34185 l 0.52917,0.38141 0.52917,0.3814 v 0.47076 0.47075 h 0.26458 0.26458 v 0.52917 0.52917 h 0.26459 0.26458 v 0.52916 0.52917 h 2.38125 2.38125 v 8.99583 8.99584 H 133.21906 110.4649 Z m 10.05416,8.20209 v -0.26459 h 0.50712 0.50712 l 0.1342,0.33073 0.13419,0.33073 0.28473,-0.39687 0.28473,-0.39688 0.28472,0.39688 0.28473,0.39687 0.1342,-0.33073 0.13419,-0.33073 h 1.27882 1.27882 l 0.1342,0.33073 0.1342,0.33073 0.28472,-0.39687 0.28473,-0.39688 0.26458,0.39688 0.26459,0.39687 0.26458,-0.39687 0.26458,-0.39688 0.26459,0.39688 0.26458,0.39687 0.26458,-0.39687 0.26459,-0.39688 0.26458,0.39688 0.26458,0.39687 0.26459,-0.39687 0.26458,-0.39688 0.26458,0.39688 0.26459,0.39687 0.28472,-0.39687 0.28473,-0.39688 0.1342,0.33073 0.13419,0.33073 h 0.74966 0.74965 l 0.15434,-0.33073 0.15434,-0.33073 0.15434,0.33073 0.15434,0.33073 h 0.50712 0.50712 v -0.26458 -0.26459 h 0.50712 0.50711 l 0.1342,0.33073 0.1342,0.33073 0.28472,-0.39687 0.28473,-0.39688 0.26458,0.39688 0.26459,0.39687 0.24442,-0.37986 0.24441,-0.37986 0.46783,0.37986 0.46783,0.37986 -0.19869,-0.33073 -0.1987,-0.33073 h 0.42811 0.4281 l -0.16352,0.26459 -0.16352,0.26458 h 0.39044 0.39044 l 0.15434,-0.33073 0.15434,-0.33073 0.15434,0.33073 0.15434,0.33073 h 0.50712 0.50712 v -0.26458 -0.26459 h 0.52916 0.52917 v 0.26459 0.26458 h 0.54478 0.54478 l -0.16352,-0.26458 -0.16352,-0.26459 h 0.65503 0.65502 l 0.1342,0.33073 0.13419,0.33073 0.27666,-0.39687 0.27665,-0.39688 0.54749,0.33938 0.5475,0.33937 0.38662,-0.38662 0.38662,-0.38662 v -5.44286 -5.44286 h -0.26458 -0.26459 v -1.05833 -1.05833 h -0.26458 -0.26458 v -0.52917 -0.52917 h -0.26459 -0.26458 v -0.52916 -0.52917 h -0.26458 -0.26459 v -0.40114 -0.40115 l -1.9801,-1.9801 -1.98011,-1.98011 h -0.40114 -0.40115 v -0.26458 -0.26459 h -0.52916 -0.52917 V 173.9 173.63542 h -0.79375 -0.79375 v -0.26459 -0.26458 h -1.05833 -1.05834 v -0.26458 -0.26459 h -1.5875 -1.5875 v 0.26459 0.26458 h -1.05833 -1.05833 v 0.26458 0.26459 h -0.79375 -0.79375 v 0.26458 0.26458 h -0.52917 -0.52917 v 0.26459 0.26458 h -0.42301 -0.42301 l -0.74148,0.79375 -0.74147,0.79375 h -0.30962 -0.30962 l -0.37798,0.37798 -0.37797,0.37797 v 0.30962 0.30962 l -0.79375,0.74148 -0.79375,0.74147 v 0.42301 0.42302 h -0.26459 -0.26458 v 0.52916 0.52917 h -0.26458 -0.26459 v 1.05833 1.05834 h -0.26458 -0.26458 v 6.08541 6.08542 h 0.26458 0.26458 z m 1.5875,-2.88837 v -0.50712 l 0.33073,-0.15434 0.33073,-0.15434 -0.33073,-0.15434 -0.33073,-0.15434 v -4.3556 -4.35561 l 0.64944,-0.64943 0.64943,-0.64943 h 0.29551 0.2955 l 0.37798,0.37798 0.37798,0.37797 v 5.44286 5.44286 h -1.32292 -1.32292 z m 4.23334,-5.99407 v -6.50119 l 0.37797,-0.37798 0.37798,-0.37798 h 0.83155 0.83154 l 0.37798,0.37798 0.37798,0.37798 v 6.50119 6.50119 h -1.5875 -1.5875 z m 5.29166,-0.79375 v -7.29494 l 0.37798,-0.37798 0.37798,-0.37798 h 0.83154 0.83155 l 0.37798,0.37798 0.37797,0.37798 v 7.29494 7.29494 h -1.5875 -1.5875 z m 5.29167,0.41577 v -6.87917 h 0.50712 0.50712 l 0.15434,-0.33073 0.15434,-0.33073 0.15434,0.33073 0.15434,0.33073 h 0.39372 0.39373 l 0.37797,0.37798 0.37798,0.37798 v 6.38451 6.38451 l -0.26458,-0.16352 -0.26459,-0.16352 v 0.2802 0.2802 h -1.32291 -1.32292 z m 4.7625,1.43631 v -5.44286 l 0.37798,-0.37797 0.37797,-0.37798 h 0.30238 0.30238 l 0.37798,0.37798 0.37798,0.37797 v 5.44286 5.44286 h -1.05834 -1.05833 z m -16.66875,7.9564 v -0.13229 h -0.13229 -0.13229 v 0.13229 0.13229 h 0.13229 0.13229 z m -9.26042,-3.28525 v -0.7717 l 0.33073,-0.15434 0.33073,-0.15434 -0.33073,-0.15434 -0.33073,-0.15434 v -1.83003 -1.83004 h 0.79375 0.79375 v -0.52916 -0.52917 h -0.79375 -0.79375 v -0.79375 -0.79375 h -0.52916 -0.52917 v 0.79375 0.79375 h -0.79375 -0.79375 v 0.52917 0.52916 h 0.79375 0.79375 v 2.52471 2.52471 l 0.33073,0.37564 0.33073,0.37565 0.19844,0.0101 0.19843,0.0101 z m 35.45417,0 v -0.7717 l 0.33073,-0.15434 0.33073,-0.15434 -0.33073,-0.15434 -0.33073,-0.15434 v -1.83003 -1.83004 h 0.68036 0.68035 l 0.37798,-0.37797 0.37798,-0.37798 v -0.15119 -0.15119 h -1.05834 -1.05833 v -0.79375 -0.79375 h -0.26458 -0.26459 v 0.79375 0.79375 h -1.05833 -1.05833 v 0.15119 0.15119 l 0.37797,0.37798 0.37798,0.37797 h 0.68036 0.68035 v 1.32292 1.32292 h -0.26458 -0.26458 v 0.52916 0.52917 h 0.26458 0.26458 v 1.05833 1.05834 h 0.26459 0.26458 z m 5.29167,-3.72621 v -7.67292 h 2.91041 2.91042 v 7.67292 7.67292 h -2.91042 -2.91041 z m 6.87916,-0.26458 v -7.9375 h 0.26459 0.26458 v 0.26458 0.26458 h 4.49792 4.49791 v 7.67292 7.67292 h -4.7625 -4.7625 z m 3.32619,4.91369 0.37798,-0.37798 v -2.67676 -2.67676 l -0.66146,-0.66146 -0.66146,-0.66145 -0.66146,0.66145 -0.66145,0.66146 v 3.05474 3.05473 h 0.94494 0.94494 z m 6.72798,-2.53244 v -5.55625 h 3.175 3.175 v -0.26459 -0.26458 h 0.52917 0.52916 v -0.26458 -0.26459 h 0.69657 0.69657 l 0.49406,0.56965 0.49405,0.56965 0.49406,-0.56965 0.49405,-0.56965 h 0.69657 0.69657 v 0.26459 0.26458 h 1.05834 1.05833 v -0.26458 -0.26459 h 0.52917 0.52916 v 0.26459 0.26458 h 0.50712 0.50712 l 0.11872,0.33073 0.11872,0.33073 0.52967,-0.59531 0.52968,-0.59532 h 0.57534 0.57534 l 0.55982,0.52155 0.55982,0.52156 0.45234,-0.52156 0.45234,-0.52155 h 0.69657 0.69657 v 0.26459 0.26458 h 0.41577 0.41578 l 0.37797,0.37798 0.37798,0.37797 v 5.44286 5.44286 h -11.90625 -11.90625 z m 8.0276,4.16718 0.1342,-0.33073 0.26071,0.37364 0.26072,0.37364 0.42088,-0.42088 0.42089,-0.42089 v -2.79702 -2.79703 h -0.26458 -0.26459 v -0.41577 -0.41578 l -0.39344,-0.39343 -0.39343,-0.39344 -0.6649,0.66489 -0.66489,0.6649 v 2.93361 2.93361 l 0.33073,0.37564 0.33072,0.37564 0.17639,0.0101 0.17639,0.0101 z m 3.61407,0.0661 v -0.26458 h 0.52916 0.52917 v -3.06161 -3.06161 l -0.37798,-0.37797 -0.37797,-0.37798 h -0.68036 -0.68036 v 3.70417 3.70416 h 0.52917 0.52917 z m 7.40833,-0.14791 v -0.41249 l 0.26458,0.16352 0.26459,0.16353 v -0.25815 -0.25815 l -0.33073,-0.1342 -0.33073,-0.1342 0.39687,-0.28472 0.39688,-0.28473 -0.39688,-0.26458 -0.39687,-0.26459 0.39687,-0.28472 0.39688,-0.28473 -0.33073,-0.1342 -0.33073,-0.13419 v -0.74966 -0.74965 l 0.33073,-0.1342 0.33073,-0.13419 -0.39688,-0.28473 -0.39687,-0.28473 0.39687,-0.28472 0.39688,-0.28473 -0.33073,-0.1342 -0.33073,-0.13419 v -0.39373 -0.39373 l -0.39344,-0.39343 -0.39344,-0.39344 -0.66489,0.66489 -0.6649,0.6649 v 3.05473 3.05474 h 0.79375 0.79375 v 0.26458 0.26458 h 0.26459 0.26458 z m 3.32619,0.0345 0.37798,-0.37798 v -2.90768 -2.90767 l -0.1606,-0.41852 -0.1606,-0.41851 h -0.51648 -0.51647 l 0.16352,-0.26458 0.16352,-0.26459 h -0.1668 -0.16681 l -0.37797,0.37798 -0.37798,0.37797 v 3.20507 3.20507 l 0.33073,0.37564 0.33073,0.37564 0.34963,0.0101 0.34962,0.0101 z m -6.50119,-3.59078 v -3.43958 h -1.05833 -1.05834 v 3.43958 3.43959 h 1.05834 1.05833 z m 8.99583,-6.08541 v -1.05834 h 0.26459 0.26458 v -0.68035 -0.68036 l -0.37798,-0.37798 -0.37797,-0.37797 h -0.41578 -0.41577 v -0.26459 -0.26458 h -0.52917 -0.52916 v -0.26458 -0.26459 h -0.52917 -0.52917 V 180.25 179.98542 h -0.52916 -0.52917 v -0.26459 -0.26458 h -0.52917 -0.52916 v -0.26458 -0.26459 h -0.54479 -0.54478 l 0.16352,-0.26458 0.16353,-0.26458 h -0.35408 -0.35409 l -0.3814,-0.52917 -0.3814,-0.52917 h -0.35736 -0.35737 l -0.37797,-0.37797 -0.37798,-0.37798 v -0.15119 -0.15119 h 5.02708 5.02709 v 0.26458 0.26459 h 1.05833 1.05833 v 0.26458 0.26458 h 0.79375 0.79375 v 0.26459 0.26458 h 0.47076 0.47076 l 0.3814,0.52917 0.3814,0.52916 h 0.41235 0.41235 l 0.3814,0.52917 0.3814,0.52917 h 0.34422 0.34422 l 1.44945,1.44945 1.44946,1.44946 v 0.34422 0.34421 l 0.52917,0.38141 0.52916,0.3814 v 0.47076 0.47075 h 0.26459 0.26458 v 0.26459 0.26458 h -1.21137 -1.21137 l -1.01684,-1.05833 -1.01685,-1.05834 h -1.09982 -1.09982 l -1.01685,1.05834 -1.01684,1.05833 h -2.26971 -2.2697 z M -7.5392675,176.01667 v -9.26042 h 5.8208333 5.8208332 v 6.87917 6.87916 H 3.308649 2.5148991 v 0.26459 0.26458 H 1.1919824 -0.13093423 v 0.26458 0.26459 H -0.92468422 -1.7184342 v 0.26458 0.26458 h -0.79375 -0.79375 v 0.26459 0.26458 h -0.4230132 -0.4230133 l -0.7414735,0.79375 -0.7414735,0.79375 h -0.364604 -0.364604 l -0.3814018,0.52917 -0.3814017,0.52916 h -0.2061741 -0.2061742 z m 12.1708332,-1.05834 v -9.78958 h 2.5324404 2.5324405 l 0.4417594,0.44176 0.44176,0.44176 -0.328367,0.10945 -0.3283667,0.10946 v 2.0417 2.0417 l 0.3174997,0.3175 0.3175,0.3175 h -0.3175 -0.3174997 v 1.03629 1.03628 l 0.3307287,0.1342 0.33073,0.1342 -0.347866,0.24478 -0.3478661,0.24479 0.06878,2.22275 0.068781,2.22275 0.279085,0.21858 0.279086,0.21859 -0.33073,0.13419 -0.3307291,0.1342 v 1.01424 1.01423 l 0.3307291,0.1342 0.33073,0.1342 -0.396875,0.28472 -0.3968758,0.28473 0.3968758,0.26458 0.396875,0.26459 -0.396875,0.26458 -0.3968758,0.26458 0.3968758,0.26459 0.396875,0.26458 -0.396875,0.28473 -0.3968758,0.28472 0.3307298,0.1342 0.330729,0.1342 v 0.24253 0.24254 H 7.5419823 4.6315657 Z m 3.8553571,3.59078 0.3779762,-0.37798 v -3.32619 -3.32619 H 7.8065656 6.7482323 v 3.31846 3.31846 l 0.3307292,0.37564 0.3307292,0.37564 0.3496279,0.0101 0.349628,0.0101 z m 2.4946432,-12.48046 v -18.67926 l 0.79375,-0.74147 0.79375,-0.74148 v -0.62918 -0.62919 l 0.529166,-0.3814 0.529167,-0.3814 v -0.3505 -0.35049 l 0.649432,-0.64943 0.649432,-0.64943 h 0.350492 0.350492 l 0.381402,-0.52917 0.381402,-0.52917 h 0.470757 0.470758 v -0.26458 -0.26458 h 0.529166 0.529167 v -0.26459 -0.26458 h 1.058333 1.058333 v -0.26458 -0.26459 h 1.5875 1.5875 v 0.26459 0.26458 h 1.058334 1.058333 v 0.26458 0.26459 h 0.529167 0.529166 v 0.26458 0.26458 h 0.401775 0.401775 l 1.714892,1.7149 1.714892,1.71489 v 0.40177 0.40178 h 0.264583 0.264583 v 0.42301 0.42301 l 0.79375,0.74148 0.79375,0.74147 v 16.71207 16.71206 l -1.38665,1.35064 -1.386651,1.35064 0.328317,0.10944 0.328318,0.10944 v 0.50712 0.50712 H 21.035732 10.981566 Z m 17.991666,0.42302 V 149.29375 H 28.708649 28.444065 V 148.5 147.70625 h -0.264583 -0.264583 v -0.40569 -0.4057 l -0.917223,-0.91722 -0.917222,-0.91722 H 25.67476 25.269065 v -0.26459 -0.26458 h -0.529166 -0.529167 v -0.26458 -0.26459 h -2.38125 -2.38125 v 0.26459 0.26458 h -0.403838 -0.403837 l -1.183663,1.18366 -1.183662,1.18366 v 0.40384 0.40384 h -0.264583 -0.264583 v 0.52917 0.52916 h -0.264584 -0.264583 v 17.4625 17.4625 h 6.879166 6.879167 z m -12.7,7.39189 v -9.24398 h 0.264584 0.264583 v 0.26459 0.26458 h 0.507118 0.507118 l 0.15434,-0.33073 0.15434,-0.33073 0.154341,0.33073 0.15434,0.33073 h 4.189236 4.189236 l 0.109456,-0.32837 0.109455,-0.32836 0.448051,0.44805 0.44805,0.44805 -0.01958,8.87615 -0.01958,8.87615 h -0.493829 -0.493829 l -0.154341,-0.33073 -0.15434,-0.33073 -0.15434,0.33073 -0.154341,0.33073 h -0.507118 -0.507118 v -0.26348 -0.26348 l -3.96875,0.0345 -3.968749,0.0345 v 0.1727 0.17271 l -0.529167,0.0399 -0.529167,0.0399 z m 4.233333,5.57269 v -0.52917 h -0.79375 -0.79375 v -0.26458 -0.26458 h 0.529167 0.529167 v -3.43959 -3.43958 h -0.680357 -0.680357 l -0.377977,0.37798 -0.377976,0.37797 v 3.06161 3.06161 h 0.264583 0.264584 v 0.26458 0.26458 h -0.529167 -0.529166 v 0.52917 0.52917 h 1.587499 1.5875 z m 5.972024,0.15119 0.377976,-0.37798 v -0.15119 -0.15119 h -0.529166 -0.529167 v -0.26458 -0.26458 h 0.264583 0.264584 v -3.06161 -3.06161 l -0.377976,-0.37797 -0.377977,-0.37798 h -0.680357 -0.680357 v 3.43958 3.43959 l 0.330729,0.0313 0.330729,0.0313 0.198438,-0.0313 0.198437,-0.0313 v 0.26458 0.26458 h -0.79375 -0.79375 v 0.52917 0.52917 h 1.209524 1.209524 z m -8.88244,-8.08869 0.381402,-0.52917 h 0.941514 0.941515 l 0.381402,0.52917 0.381402,0.52917 h 0.206174 0.206174 v -0.41578 -0.41577 l -0.377976,-0.37798 -0.377976,-0.37797 h -0.415774 -0.415774 v -0.26459 -0.26458 h -0.529167 -0.529166 v 0.26458 0.26459 h -0.415774 -0.415774 l -0.377976,0.37797 -0.377976,0.37798 v 0.41577 0.41578 h 0.206174 0.206174 z m 6.35,0 0.381401,-0.52917 h 0.999925 0.999924 v 0.52917 0.52917 h 0.529166 0.529167 v -0.26459 -0.26458 h -0.264583 -0.264584 v -0.52917 -0.52916 h -0.529166 -0.529167 v -0.26459 -0.26458 h -0.673485 -0.673485 l -0.649431,0.64943 -0.649432,0.64943 v 0.4089 0.40891 h 0.206174 0.206174 z m -7.672917,-15.34583 v -7.9375 h 0.264584 0.264583 v -0.4057 -0.40569 l 0.917222,-0.91722 0.917222,-0.91723 h 0.405695 0.405694 v -0.26458 -0.26458 h 0.79375 0.79375 v -0.26459 -0.26458 h 1.058333 1.058334 v 0.26458 0.26459 h 0.79375 0.79375 v 0.26458 0.26458 h 0.408901 0.408902 l 0.649432,0.64944 0.649431,0.64943 v 0.4089 0.4089 h 0.264584 0.264583 v 0.52917 0.52916 h 0.264583 0.264584 v 7.67292 7.67292 h -5.820834 -5.820833 z m 3.175,0.64256 v -4.64911 l -0.377976,-0.37798 -0.377976,-0.37797 h -0.302381 -0.302381 l -0.377976,0.37797 -0.377976,0.37798 v 4.64911 4.6491 h 1.058333 1.058333 z m 3.704167,-1.05834 v -5.70744 l -0.377976,-0.37797 -0.377977,-0.37798 h -0.302381 -0.302381 l -0.377976,0.37798 -0.377976,0.37797 v 5.70744 5.70744 h 1.058333 1.058334 z m 3.704166,0.98965 V 152.029 l -0.644645,-0.345 -0.644646,-0.34501 -0.403947,0.40395 -0.403948,0.40395 -0.03307,4.11541 -0.03307,4.11541 -0.296322,0.0988 -0.296323,0.0988 0.385802,0.4346 0.385801,0.4346 0.992188,0.0101 0.992187,0.0101 z m 146.579165,25.46869 v -1.47411 l 0.42442,-0.42442 0.42442,-0.42442 0.55575,0.34707 0.55575,0.34708 0.10021,-0.30063 0.10021,-0.30063 h 0.50712 0.50712 v -0.26459 -0.26458 h -0.26458 -0.26459 v -0.52917 -0.52916 h -0.26458 -0.26458 v -0.79375 -0.79375 h -0.26459 -0.26458 v -0.79375 -0.79375 h -0.26458 -0.26459 v -0.52917 -0.52917 h -0.26458 -0.26458 v -0.79375 -0.79375 h -0.26459 -0.26458 v -0.52916 -0.52917 h -0.26458 -0.26459 v -0.52917 -0.52916 h 0.79375 0.79375 v 0.26458 0.26458 h 1.5875 1.5875 v 0.26459 0.26458 h 0.79375 0.79375 v 0.26458 0.26459 h 0.79375 0.79375 v 0.26458 0.26458 h 0.52917 0.52917 v 0.26459 0.26458 h 0.52916 0.52917 v 0.26458 0.26459 h 0.47076 0.47075 l 0.38141,0.52916 0.3814,0.52917 h 0.41235 0.41234 l 0.38141,0.52917 0.3814,0.52916 h 0.3646 0.36461 l 0.74147,0.79375 0.74147,0.79375 h 0.36461 0.3646 l 0.3814,0.52917 0.3814,0.52917 h 0.41235 0.41235 l 0.3814,0.52916 0.3814,0.52917 h 0.41235 0.41235 l 0.3814,0.52917 0.3814,0.52916 h 0.47076 0.47076 v 0.26459 0.26458 h 0.52917 0.52916 v 0.26458 0.26459 h 0.52917 0.52917 v 0.26458 0.26458 h 0.79375 0.79375 v 0.79375 0.79375 h -0.52917 -0.52917 v -0.26458 -0.26458 h -6.59253 -6.59254 l -0.15434,0.33073 -0.15434,0.33072 -0.15434,-0.33072 -0.15434,-0.33073 h -1.56545 -1.56545 v 0.26458 0.26458 h -3.175 -3.175 z m -140.577483,0.57919 -0.180848,-0.47128 v -0.11066 -0.11065 h 0.470757 0.470758 l 0.381401,-0.52916 0.381402,-0.52917 h 0.412348 0.412348 l 0.381402,-0.52917 0.381402,-0.52916 h 0.470757 0.470758 v -0.26459 -0.26458 h 0.529167 0.529166 v -0.26458 -0.26459 h 0.529167 0.529167 v -0.26458 -0.26458 h 0.79375 0.793749 v -0.26459 -0.26458 h 0.529167 0.529167 v -0.26458 -0.26459 h 0.79375 0.79375 v -0.26458 -0.26458 h 0.529166 0.529167 v -0.21051 -0.21051 l 0.992188,-0.0657 0.992187,-0.0657 0.08819,-0.253 0.08819,-0.25301 h 0.771701 0.771702 v -0.26458 -0.26458 h 1.058333 1.058333 v -0.26459 -0.26458 h 1.058334 1.058333 v -0.26458 -0.26459 h 1.322917 1.322916 V 173.9 173.63542 h 17.197917 17.197916 v 0.79375 0.79375 h -0.264583 -0.264584 v 0.52916 0.52917 h -0.264583 -0.264583 v 0.79375 0.79375 h -0.264584 -0.264583 v 0.79375 0.79375 h -0.264583 -0.264584 v 0.26458 0.26459 h 0.529167 0.529167 v 0.26458 0.26458 h 0.507118 0.507118 l 0.109455,-0.32836 0.109456,-0.32837 0.44176,0.44176 0.441759,0.44176 v 0.94494 0.94494 h -1.852083 -1.852083 v -0.26458 -0.26459 h -0.529167 -0.529167 v -0.26458 -0.26458 h -1.322916 -1.322917 v 0.26458 0.26458 h -0.79375 -0.79375 v -0.26458 -0.26458 h -1.322916 -1.322917 v 0.26458 0.26458 h -0.529167 -0.529166 v 0.26459 0.26458 h -3.704167 -3.704167 v -0.26458 -0.26459 h -0.529166 -0.529167 v -0.26458 -0.26458 h -1.322917 -1.322916 v 0.26458 0.26458 h -0.79375 -0.79375 v -0.26458 -0.26458 h -1.322917 -1.322916 v 0.26458 0.26458 H 61.878736 61.44675 l -0.529677,0.59532 -0.529678,0.59531 -0.118718,-0.33073 -0.118718,-0.33073 h -3.359126 -3.359125 l -0.381402,-0.52917 -0.381402,-0.52916 h -1.264507 -1.264508 v 0.26458 0.26458 h -0.79375 -0.79375 v -0.26458 -0.26458 h -1.322916 -1.322917 v 0.26458 0.26458 h -0.529167 -0.529166 v 0.26459 0.26458 h -5.798785 -5.798785 l -0.105783,0.31735 -0.105784,0.31735 z m 0.877485,-18.83544 v -16.55536 l 0.44176,-0.44176 0.441759,-0.44176 0.109456,0.32837 0.109455,0.32836 h 1.543403 1.543403 l 0.134197,-0.33073 0.134198,-0.33072 0.284726,0.39687 0.284726,0.39688 0.284727,-0.39688 0.284726,-0.39687 0.134197,0.33072 0.134197,0.33073 h 0.48507 0.485069 l 0.109456,-0.32836 0.109455,-0.32837 0.44176,0.44176 0.44176,0.44176 v 14.70327 14.70328 h -0.529167 -0.529167 v 0.26458 0.26458 h -0.529166 -0.529167 v 0.26459 0.26458 h -0.529166 -0.529167 v 0.26458 0.26459 h -0.529167 -0.529166 v 0.26458 0.26458 h -0.529167 -0.529167 v 0.26459 0.26458 h -0.529166 -0.529167 v 0.26458 0.26459 h -0.529167 -0.529166 v 0.26458 0.26458 h -0.264584 -0.264583 z m 3.704167,-3.70417 v -2.79702 l -0.396875,-0.39688 -0.396875,-0.39687 -0.396875,0.39687 -0.396875,0.39688 v 2.79702 2.79702 h 0.79375 0.79375 z m 50.799999,18.93661 v -0.26459 h 0.264583 0.264583 v -0.79375 -0.79375 h 0.264584 0.264583 v -0.52916 -0.52917 h 0.264583 0.264584 v -0.79375 -0.79375 h 0.264583 0.264583 V 173.9 173.10625 h 0.264584 0.264583 v -0.52917 -0.52916 h 0.264583 0.264584 v -0.68036 -0.68036 l 0.377976,-0.37797 0.377976,-0.37798 h 4.119941 4.119939 v 4.7625 4.7625 h -6.085416 -6.085416 z m 13.229162,-4.49792 v -4.7625 h 8.73125 8.73125 v 0.15843 0.15843 l -0.79375,0.74147 -0.79375,0.74148 v 0.3646 0.3646 l -0.52916,0.38141 -0.52917,0.3814 v 0.41235 0.41234 l -0.52917,0.38141 -0.52916,0.3814 v 0.47076 0.47075 h -0.26459 -0.26458 v 0.52917 0.52917 h -2.64583 -2.64584 v 1.32291 1.32292 h -3.96875 -3.96875 z m 55.03334,3.43958 v -1.32291 h -2.26786 -2.26786 l -0.37797,-0.37798 -0.37798,-0.37798 v -0.41577 -0.41577 h -0.26458 -0.26459 v -0.52917 -0.52917 h -0.26458 -0.26458 v -0.41762 -0.41761 l -1.05834,-1.01685 -1.05833,-1.01685 v -0.41762 -0.41761 h -0.52917 -0.52916 v -0.26459 -0.26458 h 7.67291 7.67292 v 4.7625 4.7625 h -2.91042 -2.91041 z m 6.87916,-3.43958 v -4.7625 h 4.23334 4.23333 v 0.52917 0.52916 h 0.26458 0.26459 v 0.52917 0.52917 h 0.26458 0.26458 v 0.79375 0.79375 h 0.26459 0.26458 v 0.79375 0.79375 h 0.26458 0.26459 v 0.52916 0.52917 h 0.26458 0.26458 v 0.79375 0.79375 h 0.26459 0.26458 v 0.79375 0.79375 h -5.82083 -5.82084 z M 42.202398,172.04792 v -4.23334 h 25.664583 25.664583 v 0.15119 0.15119 l -0.377976,0.37798 -0.377976,0.37798 h -0.566964 -0.566965 l -0.377976,0.37797 -0.377976,0.37798 v 0.68036 0.68035 h -0.264583 -0.264584 v 0.79375 0.79375 H 73.158648 55.960732 v 0.26459 0.26458 h -1.5875 -1.5875 v 0.26458 0.26459 h -1.058334 -1.058333 v 0.26458 0.26458 h -1.058333 -1.058334 v 0.26459 0.26458 h -0.79375 -0.79375 v 0.26458 0.26459 h -1.058333 -1.058333 v 0.26458 0.26458 h -0.79375 -0.79375 v 0.26459 0.26458 h -0.529167 -0.529167 z m 158.750002,3.96875 v -0.26459 h -1.32292 -1.32292 v -0.26458 -0.26458 h -5.76242 -5.76243 l -0.3814,-0.52917 -0.3814,-0.52917 h -0.41235 -0.41235 l -0.3814,-0.52916 -0.3814,-0.52917 h -0.47076 -0.47075 v -0.26458 -0.26459 h -0.52917 -0.52917 v -0.26458 -0.26458 h -0.52916 -0.52917 v -0.26459 -0.26458 h -0.52917 -0.52916 v -0.26458 -0.26459 h -0.79375 -0.79375 v -0.26458 -0.26458 h -1.05834 -1.05833 v -0.26459 -0.26458 h -2.11667 -2.11666 v -0.52917 -0.52916 h -1.05834 -1.05833 v -0.94494 -0.94494 l 0.44176,-0.44176 0.44176,-0.44176 0.10945,0.32836 0.10946,0.32837 h 0.65503 0.65502 l -0.16352,-0.26458 -0.16352,-0.26459 h 0.28019 0.2802 v 0.26459 0.26458 h 10.31875 10.31875 V 161.2 155.64375 h -0.26458 -0.26458 v -0.4089 -0.4089 l -0.64944,-0.64943 -0.64943,-0.64944 h -0.4089 -0.4089 v -0.26458 -0.26458 h -1.5875 -1.5875 v 0.26458 0.26458 h -0.42301 -0.42302 l -0.76761,0.82173 -0.76761,0.82174 -0.76761,-0.82174 -0.76761,-0.82173 h -0.42302 -0.42301 v -0.26458 -0.26458 h -1.74054 -1.74054 l -1.04781,1.05833 -1.04781,1.05833 h -0.38665 -0.38665 v -0.50711 -0.50712 l -0.33073,-0.11812 -0.33073,-0.11812 0.23466,-0.23466 0.23466,-0.23466 0.11812,0.33073 0.11812,0.33073 h 0.44871 0.4487 l 0.38141,-0.52917 0.3814,-0.52916 h 0.47076 0.47075 v -0.26459 -0.26458 h 1.85209 1.85208 v 0.26458 0.26459 h 0.47076 0.47075 l 0.38141,0.52916 0.3814,0.52917 h 0.47076 0.47075 v -0.26458 -0.26459 h 0.47076 0.47076 l 0.3814,-0.52916 0.3814,-0.52917 h 1.99985 1.99985 l 0.3814,0.52917 0.3814,0.52916 h 0.47076 0.47076 v 0.47076 0.47076 l 0.52916,0.3814 0.52917,0.3814 v 6.29159 6.29159 h 0.26458 0.26459 v 0.40965 0.40965 l 1.85208,1.82654 1.85208,1.82653 v 0.29201 0.29201 l 1.5875,1.5582 1.5875,1.55819 v 0.14695 0.14694 h -0.26458 -0.26458 z M 10.187816,174.56146 v -0.13229 h 0.132291 0.132292 v 0.13229 0.13229 h -0.132292 -0.132291 z m 109.008334,-5.68854 -0.3814,-0.52917 h -0.41235 -0.41235 l -0.3814,-0.52917 -0.3814,-0.52916 h -0.47076 -0.47076 v -0.26459 -0.26458 h -0.52917 -0.52916 v -0.26458 -0.26459 h -1.05834 -1.05833 v -0.26458 -0.26458 h -2.64583 -2.64584 v 0.26458 0.26458 h -1.05833 -1.05833 v 0.26459 0.26458 h -0.52917 -0.52917 v 0.26458 0.26459 h -0.47075 -0.47076 l -0.3814,0.52916 -0.3814,0.52917 h -0.47076 -0.47076 v 0.26458 0.26459 h -0.26458 -0.26459 v -4.49792 -4.49792 h 30.42709 30.42708 v 4.49792 4.49792 h -0.26458 -0.26459 v -0.26459 -0.26458 h -0.42301 -0.42301 l -0.74148,-0.79375 -0.74147,-0.79375 h -0.6876 -0.68759 v -0.26458 -0.26459 h -1.07395 -1.07395 l 0.16352,-0.26458 0.16352,-0.26458 h -1.7354 -1.73541 v 0.26458 0.26458 h -1.05833 -1.05834 v 0.26459 0.26458 h -0.52916 -0.52917 v 0.26458 0.26459 h -0.41762 -0.41762 l -1.01684,1.05833 -1.01685,1.05833 h -0.31146 -0.31147 l -0.74147,-0.79375 -0.74148,-0.79375 h -0.3646 -0.3646 l -0.38141,-0.52916 -0.3814,-0.52917 h -0.47076 -0.47075 v -0.26458 -0.26459 h -0.52917 -0.52917 v -0.26458 -0.26458 h -0.79375 -0.79375 v -0.26459 -0.26458 h -0.91042 -0.91043 l -0.16352,-0.26458 -0.16352,-0.26459 h -4.4823 -4.48231 v 0.26459 0.26458 h -0.79375 -0.79375 v 0.26458 0.26459 h -0.79375 -0.79375 v 0.26458 0.26458 h -0.52916 -0.52917 v 0.26459 0.26458 h -0.52917 -0.52916 v 0.26458 0.26459 h -0.42302 -0.42301 l -0.74147,0.79375 -0.74148,0.79375 h -0.42301 -0.42301 v 0.26458 0.26458 h -0.20618 -0.20617 z m -25.135419,-8.46667 v -8.46667 h 5.027083 5.027086 v 3.43959 3.43958 h -1.85209 -1.85208 v 5.02708 5.02709 h -3.174999 -3.175 z m 69.320829,3.43958 v -5.02708 h -2.11666 -2.11667 v -3.06161 -3.0616 l 0.37798,-0.37798 0.37797,-0.37798 h 4.53572 4.53571 l 0.44176,0.44176 0.44176,0.44176 -0.32837,0.10946 -0.32836,0.10945 v 0.50712 0.50712 h 0.26458 0.26458 v 0.52917 0.52916 h -0.26458 -0.26458 v 0.50712 0.50712 l 0.33073,0.1342 0.33072,0.13419 -0.35897,0.25166 -0.35898,0.25165 0.29283,0.18098 0.29283,0.18098 v 2.079 2.07901 l -0.33073,0.15434 -0.33073,0.15434 0.33073,0.15434 0.33073,0.15434 v 0.48507 0.48507 l -0.33073,0.15434 -0.33073,0.15434 0.33073,0.15434 0.33073,0.15434 v 1.27882 1.27882 l -0.33073,0.13419 -0.33073,0.1342 0.39688,0.30487 0.39687,0.30487 -0.33072,0.1342 -0.33073,0.13419 v 0.50712 0.50712 h 0.26458 0.26458 v 0.26458 0.26459 h -3.175 -3.175 z M 42.202398,160.93542 v -5.82084 h 0.264584 0.264583 v -0.93179 -0.93179 l 1.449457,-1.44946 1.449456,-1.44946 h 0.66721 0.66721 v -0.26458 -0.26458 h 1.5875 1.5875 v 0.26458 0.26458 h 0.529167 0.529167 v 0.26459 0.26458 h 0.470757 0.470758 l 0.381401,0.52917 0.381402,0.52916 h 0.412348 0.412349 l 0.381401,-0.52916 0.381402,-0.52917 h 0.470757 0.470758 v -0.26458 -0.26459 h 0.529167 0.529166 v -0.26458 -0.26458 h 1.5875 1.5875 v 0.26458 0.26458 h 0.687597 0.687596 l 0.741474,0.79375 0.741473,0.79375 h 0.364604 0.364604 l 0.381402,-0.52916 0.381402,-0.52917 h 0.470757 0.470758 v -0.26458 -0.26459 h 0.529166 0.529167 v -0.26458 -0.26458 h 1.852083 1.852084 v 0.26458 0.26458 h 0.529166 0.529167 v 0.26459 0.26458 h 0.470757 0.470758 l 0.381402,0.52917 0.381401,0.52916 h 0.364604 0.364604 l 0.741474,-0.79375 0.741474,-0.79375 h 0.687596 0.687597 v -0.26458 -0.26458 h 1.5875 1.5875 v 0.26458 0.26458 h 0.529166 0.529167 v 0.26459 0.26458 h 0.470757 0.470758 l 0.381402,0.52917 0.381401,0.52916 h 0.412349 0.412348 l 0.381402,-0.52916 0.381401,-0.52917 h 0.470758 0.470757 v -0.26458 -0.26459 h 0.529167 0.529166 v -0.26458 -0.26458 h 1.852084 1.852083 v 0.26458 0.26458 h 0.402627 0.402627 l 1.449456,1.44946 1.449457,1.44946 v 0.93179 0.93179 h 0.264583 0.264583 v 5.26962 5.26962 l -0.330729,0.15434 -0.330729,0.15434 0.330729,0.15434 0.330729,0.15434 v 0.24253 0.24254 H 67.866981 42.202398 Z m 50.270833,-0.99993 v -6.29159 l -0.529167,-0.3814 -0.529166,-0.3814 v -0.35737 -0.35736 l -0.377976,-0.37798 -0.377977,-0.37797 h -0.415773 -0.415774 v -0.26459 -0.26458 h -0.79375 -0.79375 v -0.26458 -0.26459 h -1.058334 -1.058333 v 0.26459 0.26458 h -0.682202 -0.682202 l -1.016846,1.05833 -1.016846,1.05834 h -0.30607 -0.306071 l -1.016846,-1.05834 -1.016846,-1.05833 H 79.3971 78.714898 v -0.26458 -0.26459 h -1.058333 -1.058334 v 0.26459 0.26458 h -0.73534 -0.735341 l -0.381402,0.52917 -0.381402,0.52916 h -0.470757 -0.470758 v 0.41578 0.41577 l -0.377976,0.37798 -0.377976,0.37797 h -0.151191 -0.15119 v -0.4089 -0.4089 l -0.649432,-0.64943 -0.649432,-0.64943 h -0.408901 -0.408902 v -0.26459 -0.26458 h -0.529166 -0.529167 v -0.26458 -0.26459 h -1.322917 -1.322916 v 0.26459 0.26458 h -0.529167 -0.529167 v 0.26458 0.26459 H 65.07683 64.667928 l -0.649431,0.64943 -0.649432,0.64943 v 0.4089 0.4089 h -0.14947 -0.149469 l -1.288561,-1.32291 -1.288561,-1.32292 h -0.678636 -0.678636 v -0.26458 -0.26459 h -1.058334 -1.058333 v 0.26459 0.26458 h -0.682202 -0.682202 l -1.016846,1.05833 -1.016846,1.05834 h -0.306071 -0.30607 l -1.016846,-1.05834 -1.016847,-1.05833 h -0.682201 -0.682202 v -0.26458 -0.26459 h -1.042719 -1.042718 l -0.163522,0.26459 -0.163521,0.26458 h -0.645844 -0.645843 v 0.26458 0.26459 h -0.408901 -0.408902 l -0.649432,0.64943 -0.649432,0.64943 v 0.4089 0.4089 h -0.264583 -0.264583 v 6.35 6.35 h 24.606249 24.60625 z m -46.037499,0.32644 v -4.90682 l 0.649432,-0.64943 0.649431,-0.64943 h 0.824676 0.824675 l 0.377976,0.37798 0.377976,0.37797 v 5.17828 5.17827 h -1.852083 -1.852083 z m 10.054166,-0.27145 v -5.17828 l 0.377976,-0.37797 0.377977,-0.37798 h 0.831547 0.831548 l 0.377976,0.37798 0.377976,0.37797 v 0.41578 0.41577 h 0.264584 0.264583 v 0.50712 0.50712 l -0.330729,0.15434 -0.330729,0.15434 0.330729,0.15434 0.330729,0.15434 v 2.33715 2.33715 l -0.330729,0.15434 -0.330729,0.15434 0.330729,0.15434 0.330729,0.15434 v 0.9229 0.92289 l -0.377976,0.37797 -0.377977,0.37798 h -1.474107 -1.474107 z m 9.525,0.15119 v -5.02709 h 0.264583 0.264584 v -0.52916 -0.52917 h 0.938068 0.938068 l 0.649432,0.64943 0.649432,0.64943 v 4.90682 4.90682 h -1.852084 -1.852083 z m 9.855729,4.63131 -0.330729,-0.37565 v -4.52111 -4.52111 l 0.649432,-0.64943 0.649432,-0.64943 h 0.824675 0.824675 l 0.377976,0.37798 0.377977,0.37797 v 5.17828 5.17827 l -1.521355,-0.0101 -1.521354,-0.0101 z m 9.723437,-4.7825 v -5.17828 l 0.377977,-0.37797 0.377976,-0.37798 h 0.824675 0.824675 l 0.649432,0.64943 0.649432,0.64943 v 4.90682 4.90682 h -1.852083 -1.852084 z m -94.1916648,4.91369 v -0.79375 h 0.2645834 0.2645833 v -1.05834 -1.05833 h 0.2645833 0.2645833 V 161.2 160.40625 h 0.2645834 0.2645833 v -0.4089 -0.4089 l 0.6494318,-0.64944 0.6494318,-0.64943 H -0.80441907 4.102399 v 3.70417 3.70417 H -2.2476009 -8.5976008 Z M 171.84823,160.78423 v -4.38453 l 0.37798,-0.37797 0.37797,-0.37798 h 0.56697 0.56696 l 0.37798,0.37798 0.37797,0.37797 v 4.11994 4.11994 h -1.05833 -1.05833 v 0.26459 0.26458 h -0.26459 -0.26458 z m 2.11667,4.25223 v -0.13229 h 0.13229 0.13229 v 0.13229 0.13229 h -0.13229 -0.13229 z m 7.9375,-0.13229 v -0.26459 h -1.05834 -1.05833 v -4.23333 -4.23333 h 0.52917 0.52916 v -0.26459 -0.26458 h 0.41578 0.41577 l 0.37798,0.37798 0.37797,0.37797 v 3.83331 3.83331 l 0.32837,0.10945 0.32837,0.10946 -0.44176,0.44176 -0.44176,0.44176 h -0.15119 -0.15119 z M 4.6315657,156.02173 v -8.61786 l 0.4417597,-0.44176 0.4417596,-0.44176 0.1094556,0.32837 0.1094556,0.32836 H 6.483649 7.2333018 l 0.1543402,-0.33073 0.1543403,-0.33072 0.1543403,0.33072 0.1543403,0.33073 h 0.7496527 0.7496528 l 0.1094556,-0.32836 0.1094556,-0.32837 0.4846694,0.48467 0.48467,0.48467 -0.373639,0.24057 -0.3736394,0.24057 0.3968754,0.28473 0.396875,0.28473 -0.33073,0.13419 -0.3307287,0.1342 v 3.41754 3.41753 h 0.2645837 0.264583 v 0.52917 0.52916 H 10.177806 9.9032125 l 0.044886,2.05052 0.044886,2.05052 0.2958535,0.21859 0.295854,0.21858 -0.330731,0.13419 -0.3307282,0.1342 v 0.7717 0.7717 h 0.2645832 0.264583 v 0.41578 0.41577 l -0.377976,0.37798 -0.3779759,0.37797 H 7.1640061 4.6315657 Z m 4.2333333,4.23333 v -2.79702 L 8.4869228,157.08006 8.1089466,156.70208 H 7.8065656 7.5041847 l -0.3779762,0.37798 -0.3779762,0.37798 v 2.79702 2.79702 H 7.8065656 8.864899 Z m 178.858331,0.53604 v -3.84849 l 0.64943,-0.64943 0.64943,-0.64943 h 0.28864 0.28864 l 0.64943,0.64943 0.64943,0.64943 v 3.84849 3.84848 h -1.5875 -1.5875 z m -177.535414,1.07036 v -0.13229 h 0.132291 0.132292 v 0.13229 0.13229 h -0.132292 -0.132291 z m 94.985414,-8.59896 v -5.55625 h 0.26458 0.26459 v -0.67028 -0.67028 l 0.91722,-0.91722 0.91722,-0.91722 h 0.4057 0.40569 v 0.15304 0.15303 l -1.05833,1.01685 -1.05834,1.01684 v 0.41762 0.41762 h -0.26458 -0.26458 v 5.29167 5.29166 h 26.19375 26.19375 v -5.02708 -5.02708 h -0.26459 -0.26458 v -0.67028 -0.67028 l -0.91722,-0.91722 -0.91722,-0.91722 h -0.4057 -0.40569 v -0.26459 -0.26458 h -1.79368 -1.79367 l -0.3814,0.52917 -0.3814,0.52916 h -0.47076 -0.47076 v 0.52917 0.52917 h -0.42301 -0.42302 l -0.74147,-0.79375 -0.74147,-0.79375 h -0.42302 -0.42301 v -0.26459 -0.26458 h -1.85208 -1.85209 v 0.26458 0.26459 h -0.42301 -0.42301 l -0.76761,0.82173 -0.76762,0.82173 -0.76761,-0.82173 -0.76761,-0.82173 h -0.42301 -0.42302 v -0.26459 -0.26458 h -1.85208 -1.85208 v 0.26458 0.26459 h -0.42302 -0.42301 l -0.74147,0.79375 -0.74148,0.79375 h -0.42301 -0.42301 v -0.52917 -0.52917 h -0.47076 -0.47076 l -0.3814,-0.52916 -0.3814,-0.52917 h -1.79368 -1.79367 v 0.26458 0.26459 h -0.42301 -0.42302 l -0.74147,0.79375 -0.74147,0.79375 h -0.31147 -0.31146 l -1.01685,-1.05834 -1.01685,-1.05833 h -1.74053 -1.74054 v 0.26458 0.26459 h -0.42301 -0.42301 l -0.74148,0.79375 -0.74147,0.79375 h -0.31686 -0.31686 l -0.74147,-0.79375 -0.74148,-0.79375 h -0.42301 -0.42301 v -0.28282 -0.28282 l -1.77062,0.0642 -1.77062,0.0642 -0.10351,-0.31054 -0.10352,-0.31054 h 2.13872 2.13871 v 0.26459 0.26458 h 0.47076 0.47076 l 0.3814,0.52917 0.3814,0.52916 h 0.41235 0.41235 l 0.3814,-0.52916 0.3814,-0.52917 h 0.47076 0.47076 v -0.26458 -0.26459 h 2.11666 2.11667 v 0.26459 0.26458 h 0.47076 0.47076 l 0.3814,0.52917 0.3814,0.52916 h 0.47076 0.47075 v -0.26458 -0.26458 h 0.47076 0.47076 l 0.3814,-0.52917 0.3814,-0.52917 h 2.05826 2.05826 v 0.26459 0.26458 h 0.47075 0.47076 l 0.3814,0.52917 0.38141,0.52916 h 0.67693 0.67693 l 0.3814,-0.52916 0.3814,-0.52917 h 0.47076 0.47076 v -0.26458 -0.26459 h 1.85208 1.85208 v 0.26459 0.26458 h 0.47076 0.47076 l 0.3814,0.52917 0.3814,0.52916 h 0.67693 0.67694 l 0.3814,-0.52916 0.3814,-0.52917 h 0.47076 0.47075 v -0.26458 -0.26459 h 1.85209 1.85208 v 0.26459 0.26458 h 0.42301 0.42302 l 0.76761,0.82173 0.76761,0.82173 0.76761,-0.82173 0.76761,-0.82173 h 0.42302 0.42301 v -0.26458 -0.26459 h 2.05826 2.05826 l 0.3814,0.52917 0.3814,0.52917 h 0.35736 0.35737 l 0.37797,0.37797 0.37798,0.37798 v 0.41577 0.41578 h 0.26458 0.26459 v 0.52916 0.52917 h 0.26458 0.26458 v 5.55625 5.55625 H 131.89615 105.17323 Z M -5.4226008,154.85 v -2.38125 h 0.2645833 0.2645833 v -1.05833 -1.05834 h 0.2645834 0.2645833 v 2.8948 2.89481 l 0.2645833,0.16352 0.2645834,0.16352 v 0.38126 0.38126 h -0.79375 -0.79375 z M 108.8774,152.84673 v -4.38453 l 0.37797,-0.37797 0.37798,-0.37798 h 0.83155 0.83155 l 0.37797,0.37798 0.37798,0.37797 v 4.38453 4.38452 h -1.5875 -1.5875 z m 8.46666,0 v -4.38453 l 0.37798,-0.37797 0.37798,-0.37798 h 0.83154 0.83155 l 0.37798,0.37798 0.37797,0.37797 v 4.38453 4.38452 h -1.5875 -1.5875 z m 8.46667,0 v -4.38453 l 0.37798,-0.37797 0.37797,-0.37798 h 0.83155 0.83155 l 0.37797,0.37798 0.37798,0.37797 v 4.38453 4.38452 h -1.5875 -1.5875 z m 8.46667,0.15119 v -4.23334 h 0.26458 0.26458 v -0.52916 -0.52917 h 0.94494 0.94494 l 0.37798,0.37798 0.37798,0.37797 v 4.38453 4.38452 h -1.5875 -1.5875 z m 8.99583,-0.15119 v -4.38453 l 0.37798,-0.37797 0.37797,-0.37798 h 0.94494 0.94494 v 0.52917 0.52916 h 0.26459 0.26458 v 4.23334 4.23333 h -1.5875 -1.5875 z m 8.46667,0 v -4.38453 l 0.37797,-0.37797 0.37798,-0.37798 h 0.83155 0.83154 l 0.37798,0.37798 0.37798,0.37797 v 4.38453 4.38452 h -1.5875 -1.5875 z m 23.45585,0.55049 -0.39931,-0.3993 h -1.73869 -1.73869 v 0.26458 0.26458 h -0.52916 -0.52917 v -0.26458 -0.26458 h 0.52917 0.52916 v -0.26459 -0.26458 h 1.85209 1.85208 v 0.26458 0.26459 h 0.52917 0.52916 v 0.24896 0.24897 l -0.24325,0.15034 -0.24325,0.15034 z m 1.41498,-0.66389 v -0.26458 h -0.52917 -0.52916 v -0.26458 -0.26459 h -0.52917 -0.52917 v -0.26458 -0.26458 h -0.52916 -0.52917 v -0.26459 -0.26458 h -0.52917 -0.52916 v -0.26458 -0.26459 h -0.47076 -0.47076 l -0.3814,-0.52916 -0.3814,-0.52917 h -0.35737 -0.35736 l -0.37798,-0.37798 -0.37797,-0.37797 v -4.09789 -4.0979 l -0.33073,-0.15434 -0.33073,-0.15434 0.33073,-0.15434 0.33073,-0.15434 v -1.03628 -1.03629 h -0.26459 -0.26458 v -0.26458 -0.26458 h 2.91042 2.91041 v 0.26458 0.26458 h 1.05834 1.05833 v 0.26459 0.26458 h 0.79375 0.79375 v 0.26458 0.26459 h 0.79375 0.79375 v 0.26458 0.26458 h 0.52917 0.52916 v 0.26459 0.26458 h 0.52917 0.52917 v 0.26458 0.26459 h 0.52916 0.52917 v 0.26458 0.26458 h 0.47076 0.47075 l 0.38141,0.52917 0.3814,0.52917 h 0.34224 0.34225 l 2.24518,2.24518 2.24518,2.24517 v 0.34225 0.34224 l 0.52916,0.38141 0.52917,0.3814 v 0.41235 0.41234 l 0.52917,0.38141 0.52916,0.3814 v 0.73534 0.73534 h 0.26459 0.26458 v 0.52917 0.52916 h 0.26458 0.26459 v 0.52917 0.52917 h -0.20618 -0.20617 l -0.3814,-0.52917 -0.38141,-0.52917 h -0.73534 -0.73534 v -0.26458 -0.26458 h -1.05833 -1.05833 v 0.26458 0.26458 h -0.79375 -0.79375 v 0.26459 0.26458 h -0.52917 -0.52917 v 0.26458 0.26459 h -0.47075 -0.47076 l -0.3814,-0.52917 -0.38141,-0.52917 h -0.73534 -0.73534 v -0.26458 -0.26458 h -1.32291 -1.32292 v 0.26458 0.26458 h -0.52917 -0.52916 v 0.26459 0.26458 h -0.52917 -0.52917 v 0.26458 0.26459 h -0.52916 -0.52917 z m -134.408332,-0.7717 v -0.50712 l 0.33073,-0.15434 0.330729,-0.15434 -0.330729,-0.15434 -0.33073,-0.15434 v -5.26962 -5.26961 h -0.264583 -0.264583 v -0.52917 -0.52917 h -0.264584 -0.264583 v -2.64583 -2.64583 h 26.722916 26.722917 v 7.40833 7.40833 H 94.11914 93.648383 l -0.381402,0.52917 -0.381402,0.52917 h -0.470757 -0.470758 v 0.26458 0.26458 h -0.529166 -0.529167 v -0.26458 -0.26458 h -0.529167 -0.529166 v -0.26459 -0.26458 h -1.058334 -1.058333 v -0.26458 -0.26459 h -0.529167 -0.529166 v 0.26459 0.26458 h -1.058334 -1.058333 v 0.26458 0.26459 h -0.470757 -0.470758 l -0.381401,0.52916 -0.381402,0.52917 h -0.412348 -0.412349 l -0.381401,-0.52917 -0.381402,-0.52916 h -0.470758 -0.470757 v -0.26459 -0.26458 h -1.058333 -1.058334 v -0.26458 -0.26459 h -0.529166 -0.529167 v 0.26459 0.26458 h -1.058333 -1.058334 v 0.26458 0.26459 h -0.470757 -0.470758 l -0.381401,0.52916 -0.381402,0.52917 h -0.470758 -0.470757 v -0.26458 -0.26459 h -0.470757 -0.470758 l -0.381402,-0.52916 -0.381401,-0.52917 h -0.999924 -0.999925 v -0.26458 -0.26459 h -0.79375 -0.79375 v 0.26459 0.26458 h -0.999924 -0.999924 l -0.381402,0.52917 -0.381401,0.52916 h -0.470758 -0.470757 v 0.26459 0.26458 H 62.898307 62.42755 l -0.381402,-0.52917 -0.381402,-0.52916 h -0.470757 -0.470757 v -0.26459 -0.26458 h -1.058334 -1.058333 v -0.26458 -0.26459 h -0.529167 -0.529166 v 0.26459 0.26458 h -1.058334 -1.058333 v 0.26458 0.26459 H 54.960807 54.49005 l -0.381402,0.52916 -0.381401,0.52917 H 53.314898 52.90255 l -0.381402,-0.52917 -0.381401,-0.52916 h -0.470758 -0.470757 v -0.26459 -0.26458 h -1.058334 -1.058333 v -0.26458 -0.26459 h -0.79375 -0.79375 v 0.26459 0.26458 h -0.79375 -0.79375 v 0.26458 0.26459 H 45.435808 44.96505 l -0.381402,0.52916 -0.381401,0.52917 h -0.470758 -0.470757 v 0.41577 0.41578 l -0.377976,0.37797 -0.377977,0.37798 h -0.15119 -0.151191 z m 49.741666,-0.7024 v -0.15119 l 0.377977,-0.37798 0.377976,-0.37798 h 0.415774 0.415773 v -0.26458 -0.26458 h 0.529167 0.529167 v -0.26459 -0.26458 h 0.470757 0.470758 l 0.381401,-0.52917 0.381402,-0.52916 h 0.470758 0.470757 v -0.26459 -0.26458 h 0.529167 0.529166 v -0.26458 -0.26459 h 3.174996 3.175 v 0.52917 0.52917 h -0.26458 -0.26458 v 1.5875 1.5875 h -6.085419 -6.085417 z m 67.204166,-1.96548 v -2.11667 h 3.175 3.175 v 0.26459 0.26458 h 0.47076 0.47075 l 0.38141,0.52917 0.3814,0.52916 h 0.47076 0.47075 v 0.26459 0.26458 h 0.47076 0.47076 l 0.3814,0.52917 0.3814,0.52916 h 0.47076 0.47076 v 0.26459 0.26458 h 0.52916 0.52917 v 0.26458 0.26459 h -6.35 -6.35 z M 47.758648,149.16146 v -0.13229 h 0.132292 0.132292 v 0.13229 0.13229 H 47.89094 47.758648 Z m 47.889583,-9.65729 v -8.20209 h 9.789579 9.78959 v 0.15119 0.15119 l -0.37798,0.37798 -0.37797,0.37798 h -0.28688 -0.28687 l -2.51015,2.51015 -2.51015,2.51015 v 0.34185 0.34186 l -0.52917,0.3814 -0.52917,0.38141 v 0.47075 0.47076 h -0.26458 -0.26458 v 0.52917 0.52916 h -0.26459 -0.26458 v 0.52917 0.52917 h -0.26458 -0.26459 v 0.79375 0.79375 h -0.26458 -0.26458 v 0.79375 0.79375 h -0.26459 -0.26458 v 0.52916 0.52917 h -3.43958 -3.439586 v 0.26458 0.26459 h -0.470757 -0.470758 l -0.381401,0.52916 -0.381402,0.52917 h -0.470758 -0.470757 z m 71.437499,7.9375 v -0.26459 h -0.47076 -0.47075 l -0.38141,-0.52916 -0.3814,-0.52917 h -3.26778 -3.26778 l -0.37798,-0.37798 -0.37797,-0.37797 v -0.94494 -0.94494 h -0.26459 -0.26458 v -0.52917 -0.52917 h -0.26458 -0.26459 v -0.79375 -0.79375 h -0.26458 -0.26458 v -0.47075 -0.47076 l -0.52917,-0.3814 -0.52917,-0.3814 v -0.41235 -0.41235 l -0.52916,-0.3814 -0.52917,-0.3814 v -0.34225 -0.34225 l -2.24518,-2.24517 -2.24518,-2.24518 h -0.28726 -0.28726 l -0.37798,-0.37798 -0.37797,-0.37798 v -0.15119 -0.15119 h 9.78958 9.78958 v 8.20209 8.20208 h -0.52916 -0.52917 z M 40.085732,146.78021 v -0.13229 h 0.132291 0.132292 v 0.13229 0.13229 h -0.132292 -0.132291 z m 128.587498,0 v -0.13229 h 0.13229 0.13229 v 0.13229 0.13229 h -0.13229 -0.13229 z M 4.6315657,143.7375 v -2.38125 h 4.7624999 4.7625004 v 0.20617 0.20618 l -0.529167,0.3814 -0.529167,0.3814 v 0.41235 0.41235 l -0.529166,0.3814 -0.529167,0.3814 v 0.47076 0.47076 h -0.264583 -0.264584 v 0.52916 0.52917 H 8.071149 4.6315657 Z m 28.0458333,1.85208 v -0.52916 h -0.264584 -0.264583 v -0.42302 -0.42301 l -0.79375,-0.74147 -0.79375,-0.74148 v -0.42301 -0.42301 h -0.529167 -0.529166 v -0.26459 -0.26458 h 6.085416 6.085417 v 2.38125 2.38125 h -4.497917 -4.497916 z m 81.491661,-1.32291 v -0.26459 h -0.52916 -0.52917 v -0.26458 -0.26458 h -0.52917 -0.52916 v -0.26459 -0.26458 h -1.5875 -1.5875 v 0.26458 0.26459 h -0.52917 -0.52917 v 0.26458 0.26458 h -0.52916 -0.52917 v -0.52916 -0.52917 h 0.26458 0.26459 V 142.15 141.35625 h 0.26458 0.26458 v -0.47076 -0.47075 l 0.52917,-0.38141 0.52917,-0.3814 v -0.41235 -0.41234 l 0.52916,-0.38141 0.52917,-0.3814 v -0.34224 -0.34225 l 2.24518,-2.24518 2.24518,-2.24518 h 0.34224 0.34225 l 0.3814,-0.52916 0.3814,-0.52917 h 0.47076 0.47076 v -0.26458 -0.26459 h 0.47075 0.47076 l 0.3814,-0.52916 0.38141,-0.52917 h 0.47075 0.47076 v -0.26458 -0.26459 h 0.79375 0.79375 V 129.45 129.18542 h 0.52917 0.52916 v -0.26459 -0.26458 h 1.05834 1.05833 v -0.26458 -0.26459 h 1.32292 1.32291 v -0.26458 -0.26458 h 5.02709 5.02708 v 0.26458 0.26458 h 1.32292 1.32291 v 0.26459 0.26458 h 0.79375 0.79375 v 0.26458 0.26459 h 0.79375 0.79375 v 0.26458 0.26458 h 0.52917 0.52917 v 0.26459 0.26458 h 0.52916 0.52917 v 0.26458 0.26459 h 0.52917 0.52916 v 0.26458 0.26458 h 0.52917 0.52917 v 0.26459 0.26458 h 0.42301 0.42301 l 0.74148,0.79375 0.74147,0.79375 h 0.29562 0.29562 l 1.71489,1.71489 1.7149,1.71489 v 0.29563 0.29562 l 0.79375,0.74147 0.79375,0.74147 v 0.42302 0.42301 h 0.26458 0.26458 v 0.52917 0.52916 h 0.26459 0.26458 v 0.52917 0.52917 h 0.26458 0.26459 v 0.52916 0.52917 h 0.26458 0.26458 v 0.52917 0.52916 h -0.52916 -0.52917 v -0.20016 -0.20016 l -1.05417,-0.32901 -1.05416,-0.329 h -1.0625 -1.0625 v 0.26458 0.26459 h -0.73534 -0.73534 l -0.38141,0.52916 -0.3814,0.52917 h -0.67693 -0.67693 l -0.3814,-0.52917 -0.3814,-0.52916 h -0.73535 -0.73534 v -0.26459 -0.26458 h -1.32291 -1.32292 v 0.26458 0.26459 h -0.73534 -0.73534 l -0.3814,0.52916 -0.3814,0.52917 h -0.67694 -0.67693 l -0.3814,-0.52917 -0.3814,-0.52916 h -0.73534 -0.73534 v -0.26459 -0.26458 h -1.32292 -1.32292 v 0.26458 0.26459 h -0.79375 -0.79375 v 0.26458 0.26458 h -0.52916 -0.52917 v 0.26459 0.26458 h -0.47076 -0.47075 l -0.38141,-0.52917 -0.3814,-0.52916 h -0.73534 -0.73534 v -0.26459 -0.26458 h -1.32292 -1.32291 v 0.26458 0.26459 h -0.79375 -0.79375 v 0.26458 0.26458 h -0.52917 -0.52917 v 0.26459 0.26458 h -0.52916 -0.52917 v -0.26458 -0.26459 h -0.52917 -0.52916 v -0.26458 -0.26458 h -0.52917 -0.52917 v -0.26459 -0.26458 h -1.5875 -1.5875 v 0.26458 0.26459 h -0.52916 -0.52917 v 0.26458 0.26458 h -0.52917 -0.52916 v 0.26459 0.26458 h -0.52917 -0.52917 z M 5.689899,139.82716 v -0.47076 l 0.5291667,-0.3814 0.5291666,-0.3814 v -0.41235 -0.41235 l 0.5291667,-0.3814 0.5291666,-0.3814 v -0.41235 -0.41235 L 8.3357323,135.8 8.864899,135.4186 v -0.36461 -0.3646 l 0.79375,-0.74147 0.79375,-0.74148 v -0.29647 -0.29647 l 1.449456,-1.44946 1.449457,-1.44946 h 0.402627 0.402627 V 129.45 129.18542 h 0.529166 0.529167 v -0.26459 -0.26458 h 0.529167 0.529166 v -0.26458 -0.26459 h 1.322917 1.322916 v 0.14507 0.14506 l -1.852083,1.82654 -1.852083,1.82654 v 0.35124 0.35124 l -0.529167,0.3814 -0.529166,0.3814 v 0.47076 0.47075 h -0.264584 -0.264583 v 0.52917 0.52917 h -0.264583 -0.264584 v 0.52916 0.52917 h -0.264583 -0.264583 v 0.52917 0.52916 h -0.264584 -0.264583 v 0.52917 0.52917 h -0.264583 -0.264584 v 0.41577 0.41577 l -0.377976,0.37798 -0.377976,0.37798 H 8.2223395 5.689899 Z m 6.35,0.20617 v -0.26458 h 0.264583 0.264584 v -0.79375 -0.79375 h 0.264583 0.264583 v -0.52917 -0.52916 h 0.264584 0.264583 v -0.52917 -0.52917 h 0.264583 0.264584 v -0.47075 -0.47076 l 0.529166,-0.3814 0.529167,-0.3814 v -0.47076 -0.47076 h 0.264583 0.264584 v -0.40065 -0.40066 l 2.245178,-2.24518 2.245179,-2.24518 h 2.917976 2.917976 l 2.245178,2.24518 2.245179,2.24518 v 0.34225 0.34224 l 0.529167,0.3814 0.529166,0.38141 v 0.47075 0.47076 h 0.264584 0.264583 v 0.52917 0.52916 h 0.264583 0.264584 v 0.52917 0.52917 h 0.264583 0.264583 v 0.52916 0.52917 h 0.264584 0.264583 v 0.52917 0.52916 h 0.264583 0.264584 v 0.52917 0.52917 h -3.175 -3.175 v -0.26459 -0.26458 h -0.529167 -0.529167 v -0.26458 -0.26459 h -0.79375 -0.79375 v -0.26458 -0.26458 h -3.175 -3.175 v 0.26458 0.26458 h -0.79375 -0.793749 v 0.26459 0.26458 h -0.529167 -0.529167 v 0.26458 0.26459 h -2.116666 -2.116667 z m 23.084895,-0.13119 -0.330729,-0.37564 v -0.40804 -0.40804 h -0.264583 -0.264583 v -0.52917 -0.52917 h -0.264584 -0.264583 v -0.52916 -0.52917 h -0.264583 -0.264584 v -0.52917 -0.52916 h -0.264583 -0.264583 v -0.52917 -0.52917 h -0.264584 -0.264583 v -0.47075 -0.47076 l -0.529167,-0.3814 -0.529166,-0.3814 v -0.36461 -0.3646 l -0.79375,-0.74148 -0.79375,-0.74147 v -0.42301 -0.42302 h -0.41249 -0.41249 l 0.163521,-0.26458 0.163522,-0.26458 h -0.431389 -0.431389 l -0.377976,-0.37798 -0.377976,-0.37798 v -0.15119 -0.15119 h 1.322917 1.322916 v 0.26459 0.26458 h 0.529167 0.529167 v 0.26458 0.26459 h 0.529166 0.529167 v 0.26458 0.26458 h 0.401775 0.401774 l 1.714892,1.7149 1.714892,1.71489 v 0.34336 0.34337 l 0.529167,0.3814 0.529167,0.3814 v 0.41235 0.41235 l 0.529166,0.3814 0.529167,0.3814 v 0.41235 0.41235 l 0.529167,0.3814 0.529166,0.3814 v 0.41235 0.41235 l 0.529167,0.3814 0.529166,0.3814 v 0.47076 0.47076 l -2.579687,-0.0101 -2.579687,-0.0101 z M 6.2190657,120.71875 v -16.40417 h 4.9136903 4.91369 l 0.377977,0.37798 0.377976,0.37798 v 2.53244 2.53244 h -0.529167 -0.529166 v -0.26459 -0.26458 h -0.529167 -0.529167 v -0.26458 -0.26459 h -0.79375 -0.79375 v -0.26458 -0.26458 h -0.529166 -0.529167 v -0.26459 -0.26458 H 10.981566 9.9232323 v 0.26458 0.26459 H 9.4524748 8.9817174 l -0.3814018,0.52916 -0.3814017,0.52917 H 7.8615493 7.5041847 l -0.3779762,0.37798 -0.3779762,0.37797 v 0.15119 0.15119 h 4.6491067 4.649107 l 0.377977,0.37798 0.377976,0.37798 v 0.92289 0.92289 l -0.330729,0.15434 -0.330729,0.15434 0.330729,0.15434 0.330729,0.15434 v 6.47914 6.47914 l -0.377976,0.37798 -0.377977,0.37798 h -0.415773 -0.415774 v 0.26458 0.26458 h -0.529167 -0.529166 v 0.26459 0.26458 h -0.401143 -0.401142 l -1.980108,1.98011 -1.9801074,1.98011 v 0.29498 0.29499 l -0.79375,0.74148 -0.79375,0.74147 v 0.3646 0.36461 L 7.277399,135.8 6.7482323,136.1814 v 0.47076 0.47076 H 6.483649 6.2190657 Z M 39.556565,136.65216 V 136.1814 L 39.027399,135.8 38.498232,135.4186 v -0.41235 -0.41235 l -0.529167,-0.3814 -0.529166,-0.3814 v -0.34225 -0.34224 l -2.245179,-2.24518 -2.245179,-2.24518 h -0.400654 -0.400655 v -0.26458 -0.26459 h -0.529167 -0.529166 v -0.26458 -0.26458 h -0.79375 -0.79375 v -8.46667 -8.46667 h 5.027083 5.027083 v -0.15119 -0.15119 l -0.377976,-0.37797 -0.377976,-0.37798 h -0.415774 -0.415774 v -0.26458 -0.26459 H 37.498308 37.02755 l -0.381401,-0.52916 -0.381402,-0.52917 h -0.999924 -0.999924 v 0.26458 0.26459 h -0.79375 -0.79375 v 0.26458 0.26458 h -0.529167 -0.529167 v 0.26459 0.26458 h -0.529166 -0.529167 v 0.26458 0.26459 h -0.529167 -0.529166 v -2.91042 -2.91042 h 5.291666 5.291667 v 16.40417 16.40417 h -0.264583 -0.264584 z m 56.091666,-6.40841 v -0.52917 h 0.264583 0.264584 v -0.79375 -0.79375 h 0.264583 0.264583 v -0.52916 -0.52917 h 0.264584 0.264583 v -0.79375 -0.79375 h 0.264583 0.264584 v -0.52917 -0.52916 h 0.264583 0.264583 v -0.79375 -0.79375 h 0.264584 0.264583 v -0.52917 -0.52917 h 0.242535 0.242534 l 0.154341,0.33073 0.15434,0.33073 0.15434,-0.33073 0.154341,-0.33073 h 0.522728 0.52274 l -0.16352,0.26459 -0.16353,0.26458 h 7.55624 7.55624 v 4.23333 4.23334 H 105.7024 95.648231 Z M 148.03573,126.275 v -4.49792 h 0.26458 0.26459 v 0.26459 0.26458 h 6.69396 6.69395 l 0.35632,-0.33073 0.35631,-0.33073 -0.20992,0.39688 -0.20992,0.39687 0.35631,-0.33073 0.35632,-0.33073 h 0.47625 0.47625 v 0.26459 0.26458 h 0.41577 0.41578 l 0.37797,0.37798 0.37798,0.37797 v 0.68036 0.68036 h 0.26458 0.26459 v 0.79375 0.79375 h 0.26458 0.26458 v 0.52916 0.52917 h 0.26459 0.26458 v 0.79375 0.79375 h 0.26458 0.26459 v 0.52917 0.52916 h 0.26458 0.26458 v 0.52917 0.52917 H 158.0899 148.03573 Z m -31.22083,-0.26458 v -4.23334 h 0.26458 0.26458 v 0.26459 0.26458 h 14.55209 14.55208 v -0.26458 -0.26459 h 0.26458 0.26459 v 4.23334 4.23333 h -0.52917 -0.52917 v -0.26458 -0.26459 h -0.52916 -0.52917 V 129.45 129.18542 h -0.52917 -0.52916 v -0.26459 -0.26458 h -0.79375 -0.79375 v -0.26458 -0.26459 h -0.79375 -0.79375 v -0.26458 -0.26458 h -0.92604 -0.92605 v -0.26459 -0.26458 h -1.4552 -1.45521 v -0.26458 -0.26459 h -3.96875 -3.96875 v 0.26459 0.26458 h -1.5875 -1.5875 v 0.26458 0.26459 h -0.79375 -0.79375 v 0.26458 0.26458 h -0.79375 -0.79375 v 0.26459 0.26458 h -0.79375 -0.79375 v 0.26458 0.26459 h -0.52917 -0.52917 v 0.26458 0.26458 h -0.52916 -0.52917 v 0.26459 0.26458 h -0.52917 -0.52916 z m -99.483334,-4.38453 v -5.44285 l 0.377976,-0.37798 0.377976,-0.37798 h 0.658308 0.658309 l 0.134197,0.33073 0.134197,0.33073 0.284727,-0.39687 0.284726,-0.39688 0.24458,0.38013 0.24458,0.38012 0.787615,-0.84314 0.787615,-0.84315 h 0.893771 0.893771 l 0.381401,0.52917 0.381402,0.52916 h 0.470758 0.470757 v 0.26459 0.26458 h 0.529167 0.529166 v -0.26458 -0.26459 h 0.680357 0.680358 l 0.377976,0.37798 0.377976,0.37798 v 5.44285 5.44286 h -5.820833 -5.820833 z m 6.349999,-1.70089 v -3.43958 h -0.415773 -0.415774 l -0.377976,0.37797 -0.377977,0.37798 v 3.06161 3.0616 h 0.79375 0.79375 z m 125.147915,1.98438 v -0.1323 h 0.13229 0.13229 v 0.1323 0.13229 h -0.13229 -0.13229 z m 12.7,0 v -0.1323 h 0.13229 0.13229 v 0.1323 0.13229 h -0.13229 -0.13229 z M 100.9399,119.925 v -1.32292 h 30.95625 30.95625 v 1.32292 1.32292 H 131.89615 100.9399 Z m 0,-8.99583 v -6.61459 h 0.26458 0.26458 v -0.52916 -0.52917 h 0.26459 0.26458 v -0.4089 -0.4089 l 0.64943,-0.64943 0.64943,-0.64944 h 0.40891 0.4089 v -0.26458 -0.26458 h 0.52916 0.52917 v -0.26459 -0.26458 h 1.85208 1.85209 v 0.26458 0.26459 h 0.52916 0.52917 v 0.26458 0.26458 h 0.47076 0.47076 l 0.3814,0.52917 0.3814,0.52917 h 0.41235 0.41235 l 0.3814,-0.52917 0.3814,-0.52917 h 0.47076 0.47075 v -0.26458 -0.26458 h 0.52917 0.52917 v -0.26459 -0.26458 h 1.5875 1.5875 v 0.26458 0.26459 h 0.68759 0.6876 l 0.74147,0.79375 0.74148,0.79375 h 0.58144 0.58144 l 0.74148,-0.79375 0.74147,-0.79375 h 0.6876 0.68759 v -0.26459 -0.26458 h 1.5875 1.5875 v 0.26458 0.26459 h 0.52917 0.52917 v 0.26458 0.26458 h 0.47075 0.47076 l 0.3814,0.52917 0.38141,0.52917 h 0.41234 0.41235 l 0.3814,-0.52917 0.38141,-0.52917 h 0.47075 0.47076 v -0.26458 -0.26458 h 0.79375 0.79375 v -0.26459 -0.26458 h 1.5875 1.5875 v 0.26458 0.26459 h 0.52917 0.52916 v 0.26458 0.26458 h 0.47076 0.47076 l 0.3814,0.52917 0.3814,0.52917 h 0.41235 0.41235 l 0.3814,-0.52917 0.3814,-0.52917 h 0.47076 0.47076 v -0.26458 -0.26458 h 0.52916 0.52917 v -0.26459 -0.26458 h 1.5875 1.5875 v 0.26458 0.26459 h 0.6822 0.6822 l 1.03759,1.07992 1.03759,1.07992 1.03759,-1.07992 1.03759,-1.07992 h 0.6822 0.68221 v -0.26459 -0.26458 h 1.5875 1.5875 v 0.26458 0.26459 h 0.66842 0.66842 l 1.18366,1.18366 1.18366,1.18366 v 0.40384 0.40384 h 0.26459 0.26458 v 0.79375 0.79375 h 0.26458 0.26459 v 6.08541 6.08542 H 131.89615 100.9399 Z m 25.51024,5.75468 0.15434,-0.33072 0.15434,0.33072 0.15434,0.33073 h 17.44045 17.44045 v -6.48804 -6.48804 l -1.44945,-1.44946 -1.44946,-1.44946 h -0.66721 -0.66721 v -0.26458 -0.26458 h -1.05833 -1.05834 v 0.26458 0.26458 h -0.67863 -0.67864 l -1.28856,1.32292 -1.28856,1.32292 h -0.14947 -0.14947 v -0.4089 -0.40891 l -0.64943,-0.64943 -0.64943,-0.64943 h -0.4089 -0.40891 v -0.26458 -0.26459 h -0.79375 -0.79375 v -0.26458 -0.26458 h -0.79375 -0.79375 v 0.26458 0.26458 h -0.94678 -0.94679 l -1.01684,1.05834 -1.01685,1.05833 h -0.31146 -0.31147 l -0.74147,-0.79375 -0.74148,-0.79375 h -0.42301 -0.42301 v -0.26458 -0.26459 h -0.52917 -0.52917 v -0.26458 -0.26458 h -1.05833 -1.05833 v 0.26458 0.26458 h -0.79375 -0.79375 v 0.26459 0.26458 h -0.4089 -0.40891 l -0.64943,0.64943 -0.64943,0.64943 v 0.40891 0.4089 h -0.14947 -0.14947 l -1.28856,-1.32292 -1.28856,-1.32292 h -0.67864 -0.67863 v -0.26458 -0.26458 h -1.05834 -1.05833 v 0.26458 0.26458 h -0.73534 -0.73534 l -0.3814,0.52917 -0.3814,0.52917 h -0.47076 -0.47076 v 0.41577 0.41578 l -0.37798,0.37797 -0.37797,0.37798 h -0.15119 -0.15119 v -0.4089 -0.40891 l -0.64943,-0.64943 -0.64944,-0.64943 h -0.4089 -0.4089 v -0.26458 -0.26459 h -0.79375 -0.79375 v -0.26458 -0.26458 h -1.07395 -1.07395 l 0.16353,0.26458 0.16352,0.26458 h -0.82655 -0.82654 l -1.28856,1.32292 -1.28856,1.32292 h -0.14947 -0.14947 v -0.4089 -0.40891 l -0.64943,-0.64943 -0.64943,-0.64943 h -0.4089 -0.40891 v -0.26458 -0.26459 h -0.52916 -0.52917 v -0.26458 -0.26458 h -1.05833 -1.05834 v 0.26458 0.26458 h -0.79375 -0.79375 v 0.26459 0.26458 h -0.4089 -0.4089 l -0.64943,0.64943 -0.64943,0.64943 v 0.40891 0.4089 h -0.26459 -0.26458 v 0.52916 0.52917 h -0.26458 -0.26459 v 5.69971 5.69971 l 0.33073,0.37564 0.33073,0.37565 12.08264,0.0101 12.08264,0.0101 z m -21.27691,-6.16358 v -4.90682 l 0.64943,-0.64943 0.64943,-0.64944 h 0.55322 0.55322 l 0.64944,0.64944 0.64943,0.64943 v 4.90682 4.90681 h -1.85209 -1.85208 z m 10.05417,-0.38485 v -5.29167 h 0.52916 0.52917 v -0.26458 -0.26459 h 0.67349 0.67348 l 0.64943,0.64944 0.64943,0.64943 v 4.90682 4.90681 h -1.85208 -1.85208 z m 9.525,0.52916 v -4.7625 h 0.26458 0.26458 v -0.41577 -0.41577 l 0.37798,-0.37798 0.37798,-0.37798 h 0.68035 0.68036 v 0.26459 0.26458 h 0.52917 0.52916 v 5.29167 5.29166 h -1.85208 -1.85208 z m 10.05416,-0.14431 v -4.90682 l 0.64944,-0.64943 0.64943,-0.64944 h 0.55322 0.55322 l 0.64943,0.64944 0.64943,0.64943 v 4.90682 4.90681 h -1.85208 -1.85209 z m 10.05417,-0.38485 v -5.29167 h 0.52917 0.52916 v -0.26458 -0.26459 h 0.67349 0.67348 l 0.64944,0.64944 0.64943,0.64943 v 4.90682 4.90681 h -1.85209 -1.85208 z m 10.05417,0.11339 v -5.17827 l 0.37797,-0.37798 0.37798,-0.37798 h 0.83155 0.83154 l 0.37798,0.37798 0.37798,0.37798 v 0.41577 0.41577 h 0.26458 0.26458 v 4.7625 4.7625 h -1.85208 -1.85208 z M 17.331566,109.34167 v -5.02709 h 5.442857 5.442857 l 0.377976,0.37798 0.377976,0.37798 v 4.38452 4.38452 h -0.15119 -0.151191 l -0.377976,-0.37797 -0.377976,-0.37798 v -0.2923 -0.2923 l -0.917223,-0.91722 -0.917222,-0.91723 H 25.67476 25.269065 V 110.4 110.13542 h -0.79375 -0.79375 l -0.03133,-0.33073 -0.03133,-0.33073 0.03789,-0.2181 0.03789,-0.21811 -0.271138,0.16757 -0.271139,0.16758 v -0.41249 -0.41249 h -0.264584 -0.264583 v 0.79375 0.79375 h -0.79375 -0.79375 v 0.26458 0.26458 h -0.403838 -0.403837 l -1.183663,1.18367 -1.183662,1.18366 v 0.66842 0.66842 h -0.264583 -0.264583 z m -10.054167,-7.9375 v -2.381252 h 15.875 15.875 v 2.003272 2.00328 l -0.377977,0.37797 -0.377976,0.37798 H 22.774423 7.277399 Z m 103.981251,-0.79375 -0.3814,-0.52917 h -0.47076 -0.47076 v -0.264582 -0.264584 h -0.79375 -0.79375 v -0.264583 -0.264583 h -1.32292 -1.32291 v 0.264583 0.264583 h -0.79375 -0.79375 v 0.264584 0.264582 h -0.52917 -0.52917 v 0.26458 0.26459 h -0.26458 -0.26458 v -0.52917 -0.529166 h 0.26458 0.26458 v -0.79375 -0.79375 h 0.26459 0.26458 v -0.529166 -0.529167 h 0.26458 0.26459 v -0.470757 -0.470758 l 0.52916,-0.381402 0.52917,-0.381401 v -0.412349 -0.412348 l 0.52917,-0.381402 0.52916,-0.381401 V 93.27289 92.931348 l 2.77505,-2.775048 2.77505,-2.775049 h 0.34154 0.34155 l 0.3814,-0.529166 0.3814,-0.529167 h 0.41235 0.41235 l 0.3814,-0.529167 0.3814,-0.529166 h 0.47076 0.47075 v -0.264584 -0.264583 h 0.52917 0.52917 v -0.264583 -0.264584 h 0.52916 0.52917 v -0.264583 -0.264583 h 0.79375 0.79375 v -0.264584 -0.264583 h 0.52917 0.52916 v -0.264583 -0.264584 h 1.05834 1.05833 v -0.264583 -0.264583 h 1.05833 1.05834 v -0.264584 -0.264583 h 1.5875 1.5875 v -0.264583 -0.264584 h 1.5875 1.5875 v -0.529166 -0.529167 h -0.26459 -0.26458 v -1.058333 -1.058334 h 0.26458 0.26459 v -2.116666 -2.116667 h 0.26458 0.26458 v -1.058333 -1.058334 h 0.26459 0.26458 v 3.07782 3.07782 l 0.59531,0.529677 0.59532,0.529677 -0.33073,0.118719 -0.33073,0.118718 v 0.507118 0.507118 h -0.26459 -0.26458 v 0.529167 0.529166 h 1.85208 1.85209 v 0.264584 0.264583 h 1.5875 1.5875 v 0.264583 0.264584 h 1.05833 1.05833 v 0.264583 0.264583 h 0.79375 0.79375 v 0.264584 0.264583 h 0.79375 0.79375 v 0.264583 0.264584 h 0.52917 0.52917 v 0.264583 0.264583 h 0.52916 0.52917 v 0.264584 0.264583 h 0.52917 0.52916 v 0.264583 0.264584 h 0.52917 0.52917 v 0.264583 0.264583 h 0.47075 0.47076 l 0.3814,0.529167 0.38141,0.529167 h 0.41234 0.41235 l 0.3814,0.529166 0.38141,0.529167 h 0.34273 0.34273 l 1.98011,1.980107 1.98011,1.980108 v 0.294989 0.294989 l 0.79375,0.741473 0.79375,0.741474 v 0.364604 0.364604 l 0.52916,0.381402 0.52917,0.381401 v 0.470758 0.470757 h 0.26458 0.26459 v 0.529167 0.529167 h 0.26458 0.26458 v 0.529166 0.529167 h 0.26459 0.26458 v 0.79375 0.793749 h 0.26458 0.26459 v 0.26458 0.26459 h -0.52917 -0.52917 v -0.26459 -0.26458 h -0.52916 -0.52917 v -0.264582 -0.264584 h -0.79375 -0.79375 v -0.264583 -0.264583 h -1.05833 -1.05834 v 0.264583 0.264583 h -0.79375 -0.79375 v 0.264584 0.264582 h -0.47075 -0.47076 l -0.3814,0.52917 -0.3814,0.52916 h -0.47076 -0.47076 v -0.26458 -0.26458 h -0.47076 -0.47075 l -0.38141,-0.52917 -0.3814,-0.529166 h -0.73534 -0.73534 v -0.264583 -0.264583 h -1.32292 -1.32291 v 0.264583 0.264583 h -0.79375 -0.79375 v 0.264584 0.264582 h -0.47076 -0.47076 l -0.3814,0.52917 -0.3814,0.52916 h -0.41235 -0.41235 l -0.3814,-0.52916 -0.3814,-0.52917 h -0.47076 -0.47076 v -0.264582 -0.264584 h -0.79375 -0.79375 v -0.264583 -0.264583 h -1.32291 -1.32292 v 0.264583 0.264583 h -0.79375 -0.79375 v 0.264584 0.264582 h -0.47076 -0.47075 l -0.38141,0.52917 -0.3814,0.52916 h -0.41235 -0.41234 l -0.38141,-0.52916 -0.3814,-0.52917 h -0.47076 -0.47075 v -0.264582 -0.264584 h -0.79375 -0.79375 v -0.264583 -0.264583 h -1.05834 -1.05833 v 0.264583 0.264583 h -0.99992 -0.99993 l -0.3814,0.529166 -0.3814,0.52917 h -0.44871 -0.44871 l -0.15434,0.33073 -0.15434,0.33073 -0.15434,-0.33073 -0.15434,-0.33073 h -0.44871 -0.44871 l -0.3814,-0.52917 -0.3814,-0.529166 h -0.73534 -0.73534 v -0.264583 -0.264583 h -1.32292 -1.32292 v 0.264583 0.264583 h -0.79375 -0.79375 v 0.264584 0.264582 h -0.47075 -0.47076 l -0.3814,0.52917 -0.3814,0.52916 h -0.41235 -0.41235 z M 7.277399,91.350001 V 84.735418 H 7.5419823 7.8065656 V 84.206251 83.677085 H 8.071149 8.3357323 V 83.27139 82.865696 l 0.9172222,-0.917222 0.9172225,-0.917223 h 0.405694 0.405695 v -0.264583 -0.264583 h 1.036284 1.036285 l 0.15434,-0.33073 0.154341,-0.330729 0.15434,0.330729 0.15434,0.33073 h 1.036285 1.036285 v 0.264583 0.264583 h 0.423013 0.423013 l 0.773235,0.827751 0.773234,0.82775 0.488433,-0.563167 0.488432,-0.563167 h 0.373577 0.373577 l 0.381402,-0.529167 0.381402,-0.529166 h 0.999924 0.999924 v -0.264584 -0.264583 h 0.529167 0.529166 v 0.264583 0.264584 h 0.79375 0.79375 v 0.264583 0.264583 h 0.423014 0.423013 l 0.741473,0.79375 0.741474,0.79375 h 0.31686 0.316859 l 0.741474,-0.79375 0.741474,-0.79375 h 0.423013 0.423013 v -0.264583 -0.264583 h 0.79375 0.79375 v -0.264584 -0.264583 h 0.529167 0.529166 v 0.264583 0.264584 h 1.058334 1.058333 v 0.264583 0.264583 h 0.405694 0.405695 l 0.917222,0.917223 0.917222,0.917222 v 0.405694 0.405695 h 0.264584 0.264583 v 1.058333 1.058333 h 0.264583 0.264584 v 6.085417 6.085416 h -15.875 -15.875 z M 37.969065,90.820834 V 84.206251 H 37.704482 37.439899 V 83.800557 83.394862 L 36.522676,82.47764 35.605454,81.560418 H 35.19976 34.794065 v -0.264583 -0.264584 h -1.852083 -1.852083 v 0.264584 0.264583 h -0.529167 -0.529167 v 0.264583 0.264584 h -0.529166 -0.529167 v 0.415773 0.415774 l -0.377976,0.377976 -0.377976,0.377977 H 27.801506 27.385732 V 83.261311 82.845537 L 27.007756,82.467561 26.62978,82.089585 H 26.272415 25.91505 L 25.533649,81.560418 25.152247,81.031251 H 23.09399 21.035732 v 0.264584 0.264583 h -0.417618 -0.417619 l -1.03759,1.079923 -1.03759,1.079923 -1.037589,-1.079923 -1.03759,-1.079923 h -0.417619 -0.417618 v -0.264583 -0.264584 h -1.852083 -1.852084 v 0.264584 0.264583 H 11.106895 10.703057 L 9.5193946,82.74408 8.3357323,83.927742 v 0.933005 0.933004 H 8.071149 7.8065656 v 5.435126 5.435125 l 0.3307292,0.375644 0.3307292,0.375644 14.750521,0.01006 14.75052,0.01006 z M 11.510732,90.669644 V 85.49137 l 0.377976,-0.377976 0.377977,-0.377976 h 1.096131 1.096131 l 0.377976,0.377976 0.377976,0.377976 v 5.178274 5.178274 h -1.852083 -1.852084 z m 9.525,0.415774 v -4.7625 h 0.264583 0.264584 V 85.907144 85.49137 l 0.377976,-0.377976 0.377976,-0.377976 h 0.831548 0.831547 l 0.377977,0.377976 0.377976,0.377976 v 5.178274 5.178274 H 22.887815 21.035732 Z M 31.089899,90.669644 V 85.49137 l 0.377976,-0.377976 0.377976,-0.377976 h 0.824675 0.824676 l 0.649431,0.649432 0.649432,0.649432 V 90.9411 95.847918 H 32.941982 31.089899 Z M 8.3357323,80.766668 v -0.79375 H 8.6003156 8.864899 V 79.502161 79.031403 L 9.3940656,78.650001 9.9232323,78.2686 V 77.856251 77.443903 L 10.452399,77.062501 10.981566,76.6811 v -0.368928 -0.368927 l 0.977745,-0.89558 0.977746,-0.89558 h 0.286762 0.286761 l 0.381402,-0.529167 0.381402,-0.529167 h 0.470757 0.470758 v -0.264583 -0.264583 h 0.529167 0.529166 v -0.264584 -0.264583 h 0.529167 0.529167 v -0.264583 -0.264584 h 0.793749 0.79375 v -0.264583 -0.264583 h 1.474108 1.474107 l 0.441759,-0.44176 0.44176,-0.441759 -0.328367,-0.109456 -0.328367,-0.109456 V 68.83837 67.802085 h 0.264584 0.264583 v -3.175 -3.175 h 0.264583 0.264584 v 1.5875 1.5875 h 0.264583 0.264583 v 1.5875 1.5875 h 0.264584 0.264583 v 0.79375 0.79375 h -0.264583 -0.264584 v 0.415774 0.415773 l 0.377977,0.377977 0.377976,0.377976 h 1.474107 1.474107 v 0.264583 0.264583 h 0.79375 0.79375 v 0.264584 0.264583 h 0.529167 0.529166 v 0.264583 0.264584 h 0.529167 0.529167 v 0.264583 0.264583 h 0.400654 0.400655 l 2.245179,2.245179 2.245178,2.245179 v 0.400654 0.400655 h 0.264584 0.264583 v 0.529167 0.529166 h 0.264583 0.264584 v 0.529167 0.529167 h 0.264583 0.264583 v 0.529166 0.529167 H 37.762891 37.556717 L 37.175315,81.031251 36.793913,80.502085 H 36.323156 35.852399 V 80.237501 79.972918 H 35.323232 34.794065 V 79.69457 79.416223 l -2.116666,0.05102 -2.116667,0.05102 v 0.227332 0.227331 h -0.423013 -0.423013 l -0.773235,0.82775 -0.773235,0.827751 -0.488432,-0.563167 -0.488432,-0.563167 h -0.431987 -0.431986 v -0.264584 -0.264583 h -0.529167 -0.529167 v -0.264583 -0.264584 h -2.116666 -2.116667 v 0.264584 0.264583 h -0.529167 -0.529166 v 0.264583 0.264584 h -0.431987 -0.431986 l -0.488432,0.563167 -0.488433,0.563167 -0.773234,-0.827751 -0.773235,-0.82775 h -0.687597 -0.687596 v -0.264583 -0.264584 h -1.852083 -1.852084 v 0.264584 0.264583 h -0.687596 -0.687597 l -0.7414734,0.79375 -0.7414735,0.79375 H 8.4941622 8.3357323 Z M 13.098232,74.54896 v -0.132292 h -0.132291 -0.132292 v 0.132292 0.132291 h 0.132292 0.132291 z"
       id="path1" /></g></svg>
